<!-- <svg width="30" height="26" viewBox="0 0 30 26" fill="none" xmlns="http://www.w3.org/2000/svg">
<path fill-rule="evenodd" clip-rule="evenodd" d="M21.0257 10.3353L23.6896 8.53627C23.3736 8.11216 23.0271 7.71022 22.6542 7.33738C20.8025 5.48567 18.2815 4.30204 15.4859 4.1787V7.39284C17.3958 7.51342 19.1146 8.33672 20.3856 9.60767C20.6142 9.83636 20.8291 10.0803 21.0273 10.3367L21.0257 10.3353ZM17.5482 12.6846C17.5094 12.6416 17.4706 12.6 17.429 12.5598C16.9148 12.0456 16.2384 11.6936 15.4831 11.5869V8.36165C17.1255 8.47945 18.6016 9.19465 19.6979 10.291C19.8837 10.4767 20.0583 10.6721 20.2205 10.8786L17.5469 12.6845L17.5482 12.6846ZM24.2731 22.2689L26.718 24.3548C27.7145 23.1102 28.5156 21.702 29.0783 20.1786C29.6743 18.5625 30 16.8148 30 14.9894C30 13.4551 29.7713 11.979 29.3472 10.5929C28.955 9.31222 28.3964 8.10503 27.6965 6.9947L25.0326 8.79373C26.1469 10.5941 26.7901 12.7162 26.7901 14.9892C26.7901 16.4209 26.5336 17.7944 26.0652 19.0667C25.6355 20.2309 25.027 21.3093 24.2731 22.2684V22.2689ZM21.0922 19.5551C22.0472 18.2827 22.6127 16.7027 22.6127 14.9897C22.6127 13.5829 22.2315 12.2662 21.5662 11.1367L24.2301 9.33769C25.2405 10.9829 25.8226 12.9192 25.8226 14.9913C25.8226 16.3094 25.5884 17.5707 25.1588 18.7364C24.7693 19.7939 24.2191 20.7725 23.5399 21.6442L21.0936 19.5569L21.0922 19.5551ZM17.9002 16.8316L20.3535 18.9258C21.1643 17.8239 21.6438 16.4629 21.6438 14.9895C21.6438 13.7837 21.3237 12.6541 20.7623 11.6797L18.0887 13.4857C18.3105 13.9403 18.4352 14.4503 18.4352 14.9895C18.4352 15.6673 18.2384 16.2994 17.9002 16.8316ZM14.991 18.4255H14.9994C15.8711 18.4255 16.6681 18.1012 17.2738 17.5648L19.727 19.659C19.7173 19.6687 19.7076 19.6784 19.6979 19.6881C18.4949 20.8912 16.8344 21.6341 14.9994 21.6341C14.8414 21.6341 14.6862 21.6285 14.531 21.6174L14.9911 18.4241L14.991 18.4255ZM8.38684 15.6535L11.5649 15.0991C11.5635 15.0631 11.5635 15.027 11.5635 14.991C11.5635 14.0416 11.9488 13.1836 12.5698 12.5613C13.084 12.0471 13.7604 11.6951 14.5157 11.5883V8.36312C12.8733 8.48093 11.3972 9.19613 10.3009 10.2924C9.09782 11.4955 8.35491 13.1559 8.35491 14.9909C8.35491 15.2154 8.366 15.4358 8.38817 15.6548L8.38684 15.6535ZM0.145531 17.0922C0.108109 16.8274 0.0790033 16.5599 0.05544 16.2897C0.0194049 15.8628 0 15.429 0 14.991C0 6.86888 6.45588 0.256532 14.5155 0V3.21137C11.4525 3.33472 8.69015 4.62787 6.66238 6.65418C4.52933 8.78723 3.20984 11.7352 3.20984 14.9909C3.20984 15.5162 3.24449 16.0332 3.31102 16.5405L0.145389 17.0935L0.145531 17.0922ZM7.59667 16.7734L4.42965 17.3264C4.82328 19.1144 5.65763 20.7374 6.81359 22.0721C8.3784 23.8794 10.5321 25.1628 12.9771 25.6245L13.4359 22.4422C11.9612 22.1345 10.6431 21.3999 9.61593 20.3729C8.64157 19.3986 7.92931 18.1595 7.59667 16.7734ZM11.731 16.0513L8.5529 16.6057C8.8495 17.7921 9.4635 18.851 10.3007 19.6881C11.1822 20.5696 12.3117 21.2058 13.5744 21.4816L14.0346 18.2883C13.4732 18.1247 12.9715 17.8212 12.5682 17.4193C12.1898 17.0409 11.8987 16.5724 11.7296 16.0513H11.731ZM7.06977 7.62438C7.15986 7.52736 7.25272 7.43173 7.34697 7.33748C9.19868 5.48576 11.7197 4.30213 14.5153 4.1788V7.39294C12.6054 7.51352 10.8866 8.33682 9.61566 9.60777C9.58378 9.63965 9.5519 9.67291 9.52003 9.70617L7.0696 7.62578L7.06977 7.62438ZM8.89512 10.4407C7.94708 11.7103 7.38715 13.2848 7.38715 14.9895C7.38715 15.2694 7.4024 15.5466 7.43289 15.8197L4.26587 16.3727C4.20766 15.9195 4.17855 15.4579 4.17855 14.9895C4.17855 12.4919 5.02539 10.1913 6.44604 8.36009L8.89647 10.4405L8.89512 10.4407Z" fill="black"/>
</svg> -->

<!-- <svg width="32" height="28" viewBox="0 0 32 28" fill="none" xmlns="http://www.w3.org/2000/svg">
<path fill-rule="evenodd" clip-rule="evenodd" d="M22.1746 11.3765L24.9047 9.52361C24.5809 9.08681 24.2257 8.67285 23.8436 8.28885C21.9459 6.38173 19.3622 5.16269 16.4971 5.03566V8.34597C18.4545 8.47016 20.216 9.31809 21.5185 10.6271C21.7529 10.8626 21.9731 11.1138 22.1762 11.3779L22.1746 11.3765ZM18.6107 13.796C18.5709 13.7518 18.5311 13.7089 18.4885 13.6676C17.9615 13.138 17.2683 12.7754 16.4942 12.6655V9.34376C18.1774 9.46509 19.6902 10.2017 20.8138 11.3308C21.0042 11.5221 21.1831 11.7233 21.3494 11.936L18.6093 13.796L18.6107 13.796ZM25.5027 23.6671L28.0083 25.8154C29.0297 24.5336 29.8507 23.0832 30.4274 21.5143C31.0382 19.8498 31.372 18.0498 31.372 16.1698C31.372 14.5896 31.1376 13.0694 30.703 11.6418C30.301 10.3228 29.7285 9.07946 29.0112 7.93592L26.2811 9.78877C27.4232 11.643 28.0822 13.8286 28.0822 16.1696C28.0822 17.6442 27.8195 19.0588 27.3393 20.3691C26.899 21.5682 26.2754 22.6788 25.5027 23.6666V23.6671ZM22.2427 20.8721C23.2214 19.5617 23.801 17.9344 23.801 16.1701C23.801 14.7212 23.4104 13.3651 22.7286 12.2019L25.4587 10.349C26.4942 12.0434 27.0908 14.0377 27.0908 16.1718C27.0908 17.5293 26.8507 18.8283 26.4104 20.0289C26.0112 21.1181 25.4473 22.1259 24.7513 23.0238L22.2442 20.874L22.2427 20.8721ZM18.9714 18.0671L21.4857 20.224C22.3166 19.0892 22.8081 17.6874 22.8081 16.1699C22.8081 14.928 22.48 13.7646 21.9047 12.7611L19.1646 14.6211C19.3919 15.0893 19.5197 15.6146 19.5197 16.1699C19.5197 16.868 19.318 17.519 18.9714 18.0671ZM15.9899 19.7087H15.9984C16.8919 19.7087 17.7087 19.3747 18.3294 18.8222L20.8436 20.9791C20.8337 20.9891 20.8238 20.9991 20.8138 21.0091C19.5809 22.2481 17.8792 23.0133 15.9985 23.0133C15.8366 23.0133 15.6775 23.0076 15.5184 22.9962L15.99 19.7073L15.9899 19.7087ZM9.22155 16.8538L12.4786 16.2828C12.4772 16.2457 12.4772 16.2086 12.4772 16.1714C12.4772 15.1936 12.8721 14.31 13.5085 13.6691C14.0354 13.1395 14.7286 12.7769 15.5028 12.667V9.34528C13.8195 9.46662 12.3067 10.2032 11.1831 11.3323C9.9502 12.5714 9.18882 14.2815 9.18882 16.1714C9.18882 16.4026 9.20019 16.6296 9.22291 16.8551L9.22155 16.8538ZM0.77537 18.3355C0.737017 18.0628 0.707188 17.7873 0.683039 17.509C0.646108 17.0693 0.626221 16.6225 0.626221 16.1714C0.626221 7.80633 7.24258 0.996141 15.5026 0.731934V4.03939C12.3634 4.16643 9.5324 5.49826 7.45422 7.58521C5.26815 9.78208 3.91586 12.8182 3.91586 16.1714C3.91586 16.7124 3.95137 17.2449 4.01955 17.7673L0.775224 18.3369L0.77537 18.3355ZM8.41173 18.0072L5.16599 18.5767C5.56941 20.4182 6.4245 22.0897 7.60919 23.4644C9.2129 25.3258 11.4201 26.6476 13.9259 27.1231L14.3961 23.8456C12.8848 23.5287 11.5339 22.7722 10.4812 21.7144C9.48261 20.7109 8.75264 19.4348 8.41173 18.0072ZM12.6488 17.2634L9.39173 17.8344C9.69571 19.0564 10.325 20.1469 11.1829 21.0091C12.0864 21.917 13.244 22.5722 14.5381 22.8563L15.0097 19.5674C14.4344 19.3989 13.9202 19.0863 13.5068 18.6724C13.119 18.2827 12.8208 17.8002 12.6474 17.2634H12.6488ZM7.87173 8.58443C7.96406 8.48451 8.05923 8.38602 8.15582 8.28895C10.0536 6.38183 12.6373 5.16279 15.5024 5.03576V8.34607C13.545 8.47025 11.7835 9.31819 10.4809 10.6272C10.4482 10.66 10.4156 10.6943 10.3829 10.7285L7.87156 8.58588L7.87173 8.58443ZM9.74246 11.4851C8.77086 12.7926 8.19701 14.4142 8.19701 16.1699C8.19701 16.4582 8.21263 16.7437 8.24388 17.0249L4.99814 17.5945C4.93848 17.1277 4.90865 16.6524 4.90865 16.1699C4.90865 13.5976 5.77654 11.2282 7.2325 9.34216L9.74385 11.4848L9.74246 11.4851Z" fill="black"/>
</svg> -->

<!-- <svg width="28" height="30" viewBox="0 0 28 30" fill="none" xmlns="http://www.w3.org/2000/svg">
<path d="M14.0001 29.4001C10.4099 29.4001 7.03506 27.902 4.49668 25.1823C4.37331 25.0501 4.37331 24.8363 4.49668 24.7042L7.37456 21.6217C5.92906 19.9613 5.01818 17.761 4.94031 15.3367H0.875059C0.700934 15.3367 0.560059 15.1857 0.560059 14.9992C0.560059 11.1526 1.95743 7.5376 4.49581 4.81791C4.51943 4.7926 4.54743 4.77104 4.57718 4.7551C4.73906 4.66791 4.77581 4.65479 7.81818 7.90229C9.36693 6.3526 11.4223 5.37666 13.6851 5.29322V0.937598C13.6851 0.751035 13.8259 0.600098 14.0001 0.600098C21.4113 0.600098 27.4401 7.05947 27.4401 15.0001C27.4401 15.1867 27.2992 15.3376 27.1251 15.3376H23.0598C22.8962 20.4254 19.0646 24.5317 14.3151 24.707V29.0626C14.3151 29.2492 14.1742 29.4001 14.0001 29.4001ZM5.16781 24.9413C7.48306 27.3067 10.4861 28.6388 13.6851 28.7213V24.707C11.4232 24.6235 9.36781 23.6485 7.81906 22.0998L5.16781 24.9413ZM14.3151 20.0138V24.032C18.7172 23.8576 22.2671 20.0542 22.4298 15.3376H18.6796C18.5238 17.8398 16.6504 19.847 14.3151 20.0138ZM8.26531 21.6217C9.70031 23.0485 11.5964 23.9485 13.6851 24.031V20.0129C12.6281 19.9379 11.6664 19.486 10.9148 18.782L8.26531 21.6217ZM5.57118 15.3376C5.64818 17.5754 6.48818 19.6079 7.81993 21.1445L10.4703 18.3057C9.81318 17.5013 9.39143 16.4701 9.32056 15.3376H5.57118ZM14.0001 10.6501C11.7609 10.6501 9.94006 12.602 9.94006 15.0001C9.94006 17.3982 11.7618 19.3501 14.0001 19.3501C16.2383 19.3501 18.0601 17.3992 18.0601 15.0001C18.0601 12.601 16.2392 10.6501 14.0001 10.6501ZM23.0598 14.6626H26.8066C26.6412 7.36228 21.1287 1.45604 14.3151 1.27885V5.29322C19.0637 5.46854 22.8962 9.57479 23.0598 14.6626ZM18.6796 14.6626H22.4298C22.2671 9.94697 18.7172 6.1426 14.3151 5.96916V9.98635C16.6504 10.1532 18.5238 12.1604 18.6796 14.6626ZM5.57118 14.6626H9.32056C9.39143 13.5301 9.81318 12.4998 10.4703 11.6945C10.0398 11.2332 8.95131 10.0679 7.81993 8.85478C6.48818 10.3923 5.64818 12.4248 5.57118 14.6626ZM1.19356 14.6626H4.94031C5.01818 12.2392 5.92906 10.037 7.37456 8.37854C6.25631 7.18135 5.17568 6.0226 4.72156 5.53697C2.51393 8.01854 1.27056 11.2351 1.19356 14.6626ZM8.26443 8.37947C8.98893 9.15385 9.86131 10.0885 10.9157 11.2182C11.6664 10.5142 12.6289 10.0623 13.6859 9.98635V5.96916C11.5956 6.05166 9.69856 6.95166 8.26443 8.37947Z" fill="black" stroke="black"/>
</svg> -->

<!-- <svg width="28" height="30" viewBox="0 0 28 30" fill="none" xmlns="http://www.w3.org/2000/svg">
<path d="M14.0001 29.4001C10.4099 29.4001 7.03506 27.902 4.49668 25.1823C4.37331 25.0501 4.37331 24.8363 4.49668 24.7042L7.37456 21.6217C5.92906 19.9613 5.01818 17.761 4.94031 15.3367H0.875059C0.700934 15.3367 0.560059 15.1857 0.560059 14.9992C0.560059 11.1526 1.95743 7.5376 4.49581 4.81791C4.51943 4.7926 4.54743 4.77104 4.57718 4.7551C4.73906 4.66791 4.77581 4.65479 7.81818 7.90229C9.36693 6.3526 11.4223 5.37666 13.6851 5.29322V0.937598C13.6851 0.751035 13.8259 0.600098 14.0001 0.600098C21.4113 0.600098 27.4401 7.05947 27.4401 15.0001C27.4401 15.1867 27.2992 15.3376 27.1251 15.3376H23.0598C22.8962 20.4254 19.0646 24.5317 14.3151 24.707V29.0626C14.3151 29.2492 14.1742 29.4001 14.0001 29.4001ZM5.16781 24.9413C7.48306 27.3067 10.4861 28.6388 13.6851 28.7213V24.707C11.4232 24.6235 9.36781 23.6485 7.81906 22.0998L5.16781 24.9413ZM14.3151 20.0138V24.032C18.7172 23.8576 22.2671 20.0542 22.4298 15.3376H18.6796C18.5238 17.8398 16.6504 19.847 14.3151 20.0138ZM8.26531 21.6217C9.70031 23.0485 11.5964 23.9485 13.6851 24.031V20.0129C12.6281 19.9379 11.6664 19.486 10.9148 18.782L8.26531 21.6217ZM5.57118 15.3376C5.64818 17.5754 6.48818 19.6079 7.81993 21.1445L10.4703 18.3057C9.81318 17.5013 9.39143 16.4701 9.32056 15.3376H5.57118ZM14.0001 10.6501C11.7609 10.6501 9.94006 12.602 9.94006 15.0001C9.94006 17.3982 11.7618 19.3501 14.0001 19.3501C16.2383 19.3501 18.0601 17.3992 18.0601 15.0001C18.0601 12.601 16.2392 10.6501 14.0001 10.6501ZM23.0598 14.6626H26.8066C26.6412 7.36228 21.1287 1.45604 14.3151 1.27885V5.29322C19.0637 5.46854 22.8962 9.57479 23.0598 14.6626ZM18.6796 14.6626H22.4298C22.2671 9.94697 18.7172 6.1426 14.3151 5.96916V9.98635C16.6504 10.1532 18.5238 12.1604 18.6796 14.6626ZM5.57118 14.6626H9.32056C9.39143 13.5301 9.81318 12.4998 10.4703 11.6945C10.0398 11.2332 8.95131 10.0679 7.81993 8.85478C6.48818 10.3923 5.64818 12.4248 5.57118 14.6626ZM1.19356 14.6626H4.94031C5.01818 12.2392 5.92906 10.037 7.37456 8.37854C6.25631 7.18135 5.17568 6.0226 4.72156 5.53697C2.51393 8.01854 1.27056 11.2351 1.19356 14.6626ZM8.26443 8.37947C8.98893 9.15385 9.86131 10.0885 10.9157 11.2182C11.6664 10.5142 12.6289 10.0623 13.6859 9.98635V5.96916C11.5956 6.05166 9.69856 6.95166 8.26443 8.37947Z" fill="black"/>
</svg> -->

<svg width="28" height="28" viewBox="0 0 28 30" fill="none" xmlns="http://www.w3.org/2000/svg">
<path d="M14.0001 29.4001C10.4099 29.4001 7.03506 27.902 4.49668 25.1823C4.37331 25.0501 4.37331 24.8363 4.49668 24.7042L7.37456 21.6217C5.92906 19.9613 5.01818 17.761 4.94031 15.3367H0.875059C0.700934 15.3367 0.560059 15.1857 0.560059 14.9992C0.560059 11.1526 1.95743 7.5376 4.49581 4.81791C4.51943 4.7926 4.54743 4.77104 4.57718 4.7551C4.73906 4.66791 4.77581 4.65479 7.81818 7.90229C9.36693 6.3526 11.4223 5.37666 13.6851 5.29322V0.937598C13.6851 0.751035 13.8259 0.600098 14.0001 0.600098C21.4113 0.600098 27.4401 7.05947 27.4401 15.0001C27.4401 15.1867 27.2992 15.3376 27.1251 15.3376H23.0598C22.8962 20.4254 19.0646 24.5317 14.3151 24.707V29.0626C14.3151 29.2492 14.1742 29.4001 14.0001 29.4001ZM5.16781 24.9413C7.48306 27.3067 10.4861 28.6388 13.6851 28.7213V24.707C11.4232 24.6235 9.36781 23.6485 7.81906 22.0998L5.16781 24.9413ZM14.3151 20.0138V24.032C18.7172 23.8576 22.2671 20.0542 22.4298 15.3376H18.6796C18.5238 17.8398 16.6504 19.847 14.3151 20.0138ZM8.26531 21.6217C9.70031 23.0485 11.5964 23.9485 13.6851 24.031V20.0129C12.6281 19.9379 11.6664 19.486 10.9148 18.782L8.26531 21.6217ZM5.57118 15.3376C5.64818 17.5754 6.48818 19.6079 7.81993 21.1445L10.4703 18.3057C9.81318 17.5013 9.39143 16.4701 9.32056 15.3376H5.57118ZM14.0001 10.6501C11.7609 10.6501 9.94006 12.602 9.94006 15.0001C9.94006 17.3982 11.7618 19.3501 14.0001 19.3501C16.2383 19.3501 18.0601 17.3992 18.0601 15.0001C18.0601 12.601 16.2392 10.6501 14.0001 10.6501ZM23.0598 14.6626H26.8066C26.6412 7.36228 21.1287 1.45604 14.3151 1.27885V5.29322C19.0637 5.46854 22.8962 9.57479 23.0598 14.6626ZM18.6796 14.6626H22.4298C22.2671 9.94697 18.7172 6.1426 14.3151 5.96916V9.98635C16.6504 10.1532 18.5238 12.1604 18.6796 14.6626ZM5.57118 14.6626H9.32056C9.39143 13.5301 9.81318 12.4998 10.4703 11.6945C10.0398 11.2332 8.95131 10.0679 7.81993 8.85478C6.48818 10.3923 5.64818 12.4248 5.57118 14.6626ZM1.19356 14.6626H4.94031C5.01818 12.2392 5.92906 10.037 7.37456 8.37854C6.25631 7.18135 5.17568 6.0226 4.72156 5.53697C2.51393 8.01854 1.27056 11.2351 1.19356 14.6626ZM8.26443 8.37947C8.98893 9.15385 9.86131 10.0885 10.9157 11.2182C11.6664 10.5142 12.6289 10.0623 13.6859 9.98635V5.96916C11.5956 6.05166 9.69856 6.95166 8.26443 8.37947Z" fill="currentColor" stroke="currentColor" stroke-opacity="0.74"/>
</svg>
