<?xml version="1.0" encoding="utf-8"?>
<!-- Generator: Adobe Illustrator 27.0.0, SVG Export Plug-In . SVG Version: 6.00 Build 0)  -->
<svg version="1.1" xmlns="http://www.w3.org/2000/svg" xmlns:xlink="http://www.w3.org/1999/xlink" x="0px" y="0px"
	 viewBox="0 0 103.3 111" style="enable-background:new 0 0 103.3 111;" xml:space="preserve">
<style type="text/css">
	.st0{fill:none;}
	.st1{opacity:0.9;fill:#1A0B0B;}
	.st2{fill:#F5F8F9;}
	.st3{fill:#FFFFFF;}
	.st4{fill:none;stroke:#343C45;stroke-width:0.2761;stroke-miterlimit:10;}
	.st5{fill:#012169;}
	.st6{opacity:0.4;fill:#333333;}
	.st7{fill:none;stroke:#C5C6C8;stroke-width:0.5039;stroke-miterlimit:10;}
	.st8{fill:#FAE8E8;}
	.st9{fill:none;stroke:#EA6061;stroke-width:0.9098;stroke-linecap:round;stroke-linejoin:round;stroke-miterlimit:10;}
	.st10{fill:#EA6061;stroke:#EA6061;stroke-width:0.25;stroke-miterlimit:10;}
	.st11{fill:#E3F6EB;}
	.st12{fill:none;stroke:#51AE3B;stroke-width:0.9098;stroke-linecap:round;stroke-linejoin:round;stroke-miterlimit:10;}
	.st13{fill:#20201F;}
	.st14{fill:#EFF2F8;}
	.st15{fill:#2A367E;}
	.st16{fill:#EA6061;}
	.st17{fill:none;stroke:#343C45;stroke-width:0.2426;stroke-miterlimit:10;}
	.st18{fill:none;stroke:#000000;stroke-width:0.5;stroke-miterlimit:10;}
	.st19{fill:#1A0B0B;}
	.st20{fill:none;stroke:#343C45;stroke-width:0.75;stroke-miterlimit:10;}
	.st21{fill:none;stroke:#333333;stroke-linecap:round;stroke-miterlimit:10;}
	.st22{opacity:0.5;}
	.st23{fill:none;stroke:#343C45;stroke-width:0.25;stroke-miterlimit:10;}
	.st24{opacity:0.95;}
	.st25{fill:url(#SVGID_1_);}
	.st26{fill:url(#SVGID_00000070084496046400674190000003362283754881105815_);}
	.st27{fill:#032D77;}
	.st28{opacity:0;fill:#032D77;}
	.st29{opacity:0.6;fill:#FFFFFF;}
	.st30{opacity:0.6;}
	.st31{fill:#EEF1F7;}
	.st32{fill:#333333;}
	.st33{fill:url(#SVGID_00000079464519798645769090000002038739712414873004_);}
	.st34{fill:url(#SVGID_00000126311329227683181760000015606622577786247834_);}
	.st35{fill:url(#SVGID_00000140007392684898699490000016993408019498805137_);}
	.st36{fill:#FAAF40;}
	.st37{fill:url(#SVGID_00000120549855651189613370000006442708747041978256_);}
	.st38{opacity:0.5;fill:url(#SVGID_00000168833542624793438120000010545848550339070097_);}
	.st39{fill:#E8E8E8;}
	.st40{fill:none;stroke:#333333;stroke-width:0.7865;stroke-linecap:round;stroke-miterlimit:10;}
	.st41{fill:url(#SVGID_00000045577824774108453780000000547410745505232775_);}
	.st42{fill:#0659ED;}
	.st43{fill:#02399B;}
	.st44{fill:url(#SVGID_00000022560181101627117340000001186259828111208847_);}
	.st45{fill:#7F00FF;}
	.st46{fill:#6900E2;}
	.st47{fill:#5200C6;}
	.st48{fill:#36B24A;}
	.st49{fill:#060139;}
	.st50{fill:none;stroke:#060139;stroke-width:1.8754;stroke-miterlimit:10;}
	.st51{display:none;fill:#37B34A;}
	.st52{display:none;fill-rule:evenodd;clip-rule:evenodd;fill:#37B34A;}
	.st53{fill-rule:evenodd;clip-rule:evenodd;fill:#37B34A;}
	.st54{fill:#37B34A;}
	.st55{fill:#08F3F9;}
	.st56{display:none;}
	.st57{display:inline;}
	.st58{fill:#BCBABB;}
	.st59{display:inline;fill:#2E1F24;}
	.st60{fill:url(#SVGID_00000026132941991862409260000007340171362774903443_);}
	.st61{fill:#FFFFFF;stroke:#919396;stroke-width:0.2269;stroke-miterlimit:10;}
	.st62{fill:#2A2A2A;}
	.st63{fill:url(#SVGID_00000106840381894568934440000011671979581712957067_);}
	.st64{fill:none;stroke:#060139;stroke-width:1.75;stroke-linecap:round;stroke-miterlimit:10;}
	.st65{fill:url(#SVGID_00000017493843360676260180000007825561044379829895_);}
	.st66{fill:#F4F4F4;}
	.st67{fill:none;stroke:#A9B4C6;stroke-width:0.5;stroke-miterlimit:10;}
	.st68{fill:#212121;}
	.st69{fill:#2E1F24;}
	.st70{fill:url(#SVGID_00000168821946346625337170000006113331396306720420_);}
	.st71{fill:url(#SVGID_00000169530893527822103420000007521799590996832695_);}
	.st72{fill:none;stroke:#C5C6C8;stroke-width:0.5;stroke-miterlimit:10;}
	.st73{fill:none;stroke:#012169;stroke-miterlimit:10;}
	.st74{fill:#F2FCFC;}
	.st75{opacity:0;fill:#FFFFFF;}
	.st76{fill:none;stroke:#333333;stroke-width:1.0354;stroke-linecap:round;stroke-linejoin:round;}
	.st77{fill:none;stroke:#FFFFFF;stroke-width:2;stroke-linecap:round;stroke-miterlimit:10;}
	.st78{fill:none;stroke:#333333;stroke-width:1.5;stroke-miterlimit:10;}
	.st79{fill:none;stroke:#FFFFFF;stroke-width:1.5;stroke-linecap:round;stroke-miterlimit:10;}
	.st80{fill:#FFFFFF;stroke:#DFDFE5;stroke-miterlimit:10;}
	.st81{fill:#EE3553;}
	.st82{fill:none;stroke:#EE3553;stroke-width:0.8203;stroke-miterlimit:10;}
	.st83{fill:none;stroke:#DFDFE5;stroke-miterlimit:10;}
	.st84{fill:#455A64;}
	.st85{fill:#E0F7FA;}
	.st86{fill:none;stroke:#060139;stroke-width:1.5;stroke-linecap:round;stroke-linejoin:round;}
	.st87{fill:#37B34A;stroke:#37B34A;stroke-width:0.3649;stroke-miterlimit:10;}
	.st88{fill:none;stroke:#060139;stroke-width:2.3665;stroke-miterlimit:10;}
	.st89{fill:none;stroke:#060139;stroke-width:2.3665;stroke-linecap:round;stroke-miterlimit:10;}
	.st90{fill:#F6F7F7;}
	.st91{fill:#FFA77B;}
	.st92{fill:#FFCFB8;}
	.st93{fill:#CFF1FB;}
	.st94{fill:#F98770;}
	.st95{fill:#746887;}
	.st96{fill:none;stroke:#060139;stroke-width:1.5777;stroke-miterlimit:10;}
	.st97{fill:#060139;stroke:#FFFFFF;stroke-width:0.75;stroke-miterlimit:10;}
	.st98{fill:#3E52D4;}
	.st99{fill:url(#SVGID_00000008841531793861254140000000316582977272742069_);}
	.st100{fill:none;stroke:#0659ED;stroke-width:2;stroke-miterlimit:10;}
	.st101{fill:url(#SVGID_00000180324407640994374580000005225375585904661632_);}
</style>
<g id="Layer_1">
	<g>
		<g>
			<path class="st49" d="M1.7,31.5c22.4,5.3,43.2,8.2,63.5,8.7l-7.1,8l-3.9,4.4l-1-0.3c-1.1-0.3-2.3-0.6-3.4-0.9
				c-0.6-0.2-1.2-0.3-1.7-0.5c-1.5-0.4-3-0.8-4.5-1.2c-2.2-0.5-4.5-0.9-6.7-1.3C35,48.2,33,48,31.5,47.9c-1.7-0.1-3.4-0.2-5.1-0.2
				c-0.2,0-0.3,0-0.5,0c-5.6,0.1-10.3,0.9-14.7,2.5c-0.3,0.1-0.5,0.2-0.8,0.3l-0.3,0.1l-0.3,0.1c-1.7-4.1-3.5-8.2-5.1-12.2
				C3.7,36.2,2.7,33.9,1.7,31.5 M9.2,42c2.3,0,3.8-2,3.8-3.8c0-2.1-1.7-3.8-3.8-3.8c-1,0-2.1,0.4-2.8,1.2c-0.7,0.7-1.1,1.6-1.1,2.6
				C5.4,40.4,7,42,9.2,42L9.2,42 M17.8,44c2,0,3.7-1.7,3.7-3.8c0-1-0.4-2-1.1-2.7c-0.7-0.7-1.7-1.1-2.7-1.1c-1,0-2,0.4-2.8,1.2
				c-0.7,0.7-1.1,1.6-1,2.6c0.1,2.2,1.5,3.7,3.8,3.8C17.7,44,17.7,44,17.8,44 M26.2,45.3L26.2,45.3L26.2,45.3c1,0,2-0.4,2.8-1.2
				c0.7-0.7,1.1-1.7,1-2.6c-0.1-2.2-1.6-3.7-3.7-3.7l-0.1,0c-0.1,0-0.1,0-0.1,0c-1,0-1.9,0.4-2.5,1.1c-0.7,0.7-1.1,1.7-1.1,2.7
				C22.5,43.7,24.1,45.3,26.2,45.3 M44.7,43.8h-1.9h-2.7l-5.4,0l-0.1,0l-0.1,0c-0.2,0-0.3,0-0.5,0c-0.9,0.1-1.5,0.8-1.5,1.7
				c0,0.9,0.5,1.5,1.4,1.7c0.3,0.1,0.5,0.1,0.7,0.1l0.1,0l0.1,0c7,0,14,0,20.9,0l0.3,0l0.3,0c0.2,0,0.5,0,0.8,0
				c0.9-0.1,1.6-0.9,1.6-1.7c0-0.9-0.7-1.6-1.5-1.7c-0.3,0-0.6,0-0.9,0h-0.1h-0.1l-7.1,0h-1.7h-1.7L44.7,43.8L44.7,43.8 M0.3,30.3
				c3.1,7.3,6,14.4,9.1,21.6c0.4-0.2,0.8-0.3,1.1-0.5c0.3-0.1,0.7-0.3,1-0.4c4.6-1.7,9.5-2.4,14.4-2.5c0.2,0,0.3,0,0.5,0
				c1.7,0,3.4,0.1,5,0.2c1.8,0.1,3.5,0.3,5.3,0.6c2.2,0.4,4.4,0.8,6.6,1.3c2.1,0.5,4.2,1.1,6.2,1.6c1.6,0.4,3.2,0.9,4.9,1.3
				c4.1-4.7,8.3-9.3,12.5-14.1C44.4,39,22.3,35.6,0.3,30.3L0.3,30.3z M9.2,41.2C9.2,41.2,9.1,41.2,9.2,41.2c-1.8,0-3-1.4-3-3
				c0-1.6,1.3-3,3-3c0,0,0,0,0,0c1.6,0,3,1.3,3,3C12.2,39.6,11,41.2,9.2,41.2L9.2,41.2z M17.8,43.1c0,0-0.1,0-0.1,0
				c-1.8-0.1-2.9-1.3-3-3c0-1.6,1.3-2.9,3-2.9c0,0,0,0,0,0c1.7,0,3,1.3,2.9,3C20.6,41.8,19.4,43.1,17.8,43.1L17.8,43.1z M26.2,44.5
				c-1.7,0-2.9-1.3-3-3c0-1.3,1-2.9,2.8-2.9c0,0,0.1,0,0.1,0c0,0,0.1,0,0.1,0c1.8,0,2.9,1.3,2.9,2.9C29.2,43.1,27.8,44.5,26.2,44.5
				C26.2,44.5,26.2,44.5,26.2,44.5L26.2,44.5z M45.5,44.7C45.5,44.7,45.5,44.7,45.5,44.7c1.2,0,2.3,0,3.5,0c2.4,0,4.7,0,7.1,0
				c0,0,0,0,0,0c0,0,0.1,0,0.1,0c0.2,0,0.5,0,0.7,0c0.5,0.1,0.8,0.5,0.8,0.9c0,0.4-0.4,0.9-0.8,0.9c-0.2,0-0.5,0-0.7,0
				c-0.2,0-0.4,0-0.6,0c-7,0-14,0-20.9,0c-0.1,0-0.2,0-0.2,0c-0.2,0-0.4,0-0.5,0c-0.5-0.1-0.7-0.4-0.7-0.9c0-0.5,0.3-0.8,0.8-0.9
				c0.1,0,0.2,0,0.4,0c0.1,0,0.2,0,0.3,0c1.8,0,3.6,0,5.4,0S43.7,44.7,45.5,44.7L45.5,44.7z"/>
		</g>
		<g>
			<path class="st49" d="M54.6,13.3C54.6,13.3,54.6,13.3,54.6,13.3c0,5,0,9.9,0,14.9c0,0.5,0.1,1.1,0.6,1.6c0.5,0.4,1.1,0.5,1.6,0.5
				c3.1,0,6.3,0,9.4,0h1.6h1.6h2.8h1.9c-1.9,2.1-3.8,4.3-5.7,6.4c0,0-0.1,0.1-0.1,0.1c-2.3,0-4.9-0.1-8-0.2c-0.8,0-1.6-0.1-2.4-0.1
				l-0.8,0c-0.5,0-1-0.1-1.5-0.1c-1.3-0.1-2.7-0.1-4-0.2c-1.1-0.1-2.2-0.2-3.2-0.3c-0.5-0.1-1.1-0.1-1.6-0.2
				c-0.5-0.1-1.1-0.1-1.6-0.2c-1-0.1-2.1-0.2-3.2-0.3c-2.7-0.3-5.4-0.7-8-1.1l-1.1-0.2c-1.4-0.2-2.7-0.4-4.1-0.6l-0.2,0
				c-0.1,0-0.1,0-0.2,0c0-0.1,0-0.1,0-0.2c0-1.9,0-3.7,0-5.6l0-2.8l0-3.5c0-2.6,0-5.2,0-7.7c0,0,0-0.1,0-0.1H54.6 M41.6,29.3
				L41.6,29.3L41.6,29.3c3.9,0,6.8-2.9,6.9-6.8c0.1-3.8-2.9-6.9-6.7-7c-0.1,0-0.1,0-0.2,0c-3.8,0-6.9,3.1-6.9,6.9
				C34.8,26.3,37.8,29.3,41.6,29.3 M55.4,12.4c-9.3,0-18.5,0-27.8,0c0,0.3-0.1,0.6-0.1,0.9c0,3.7,0,7.5,0,11.2c0,2.8,0,5.6,0,8.4
				c0,0.3,0,0.5,0,0.8c0.3,0.1,0.6,0.2,0.9,0.2c1.4,0.2,2.9,0.4,4.3,0.6c3.1,0.4,6.1,0.8,9.2,1.2c1.6,0.2,3.2,0.3,4.8,0.5
				c1.6,0.2,3.3,0.4,4.9,0.5c1.8,0.1,3.7,0.2,5.5,0.3c1.1,0.1,2.1,0.1,3.2,0.2c2.7,0.1,5.3,0.2,8,0.2c0,0,0,0,0,0
				c0.2,0,0.5-0.1,0.7-0.3c2.2-2.4,4.3-4.9,6.5-7.3c0.1-0.1,0.2-0.3,0.3-0.5c-1.3,0-2.5,0-3.6,0c-0.9,0-1.9,0-2.8,0
				c-1,0-2.1,0-3.1,0c-3.1,0-6.3,0-9.4,0c-1,0-1.4-0.3-1.4-1.2c0-4.9,0-9.9,0-14.8C55.5,13,55.4,12.8,55.4,12.4L55.4,12.4z
				 M41.6,28.5c-3.7,0-6-2.9-6.1-6.1c0-3.3,2.8-6.1,6.1-6.1c0.1,0,0.1,0,0.2,0c3.3,0.1,6,2.8,5.9,6.2C47.7,25.8,45.3,28.5,41.6,28.5
				C41.7,28.5,41.6,28.5,41.6,28.5L41.6,28.5z"/>
		</g>
		<g>
			<path class="st49" d="M89.4,39.5c-0.5,0.8-0.9,1.6-1.4,2.4l-0.1,0.2c-0.3,0.5-0.6,1-0.8,1.5c-0.1,0.1-0.1,0.1-0.3,0.1
				c0,0,0,0,0,0c-0.9,0-1.8,0-2.7,0l-1.9,0l-1.8,0l-3.2,0l-9.7,0l-0.1,0l-0.1,0c-0.2,0-0.3,0-0.6,0c0,0,0,0,0,0c1-1.2,2-2.3,3-3.5
				c0,0,0-0.1,0.2-0.1h0l0.4,0c0.5,0,1,0,1.5,0c0.5,0,1,0,1.5,0c0.6,0,1.1,0,1.7,0c1.8,0,3.7-0.1,5.5-0.2c2.3-0.1,4.6-0.3,6.8-0.5
				C88.1,39.6,88.8,39.6,89.4,39.5 M65.3,45.5c0,0.9,0.5,1.6,1.4,1.8c0.2,0,0.4,0,0.6,0l0.2,0l0.1,0l8.8,0h4.4H85l-1.3,2.3
				c-1.2,2.2-2.5,4.4-3.7,6.6c0,0,0,0,0,0c0,0,0,0-0.1,0c0,0,0,0,0,0c-0.5,0-0.9,0-1.4,0c-0.9,0-1.9,0-2.8-0.1
				c-1.9-0.2-4.1-0.4-6.5-0.7c-3.1-0.4-6.3-0.9-10.1-1.8c-0.3-0.1-0.6-0.1-0.9-0.2c0.6-0.7,1.2-1.3,1.7-2c0.9-1,1.7-1.9,2.6-2.9
				C63.4,47.7,64.4,46.6,65.3,45.5 M90.9,38.6c-0.3,0-0.5,0-0.6,0c-3.2,0.2-6.5,0.5-9.7,0.7c-2.4,0.1-4.8,0.1-7.2,0.2
				c-0.5,0-1,0-1.5,0c-0.6,0-1.3,0-1.9,0c0,0,0,0,0,0c-0.3,0-0.6,0.1-0.8,0.3c-1.3,1.5-2.7,3.1-4,4.6c-2,2.2-3.9,4.4-5.9,6.6
				c-0.9,1-1.7,2-2.6,3c0.8,0.2,1.5,0.3,2.2,0.5c3.4,0.8,6.8,1.4,10.2,1.8c2.2,0.3,4.3,0.5,6.5,0.7c1.4,0.1,2.8,0.1,4.2,0.2
				c0,0,0,0,0.1,0c0.3,0,0.6-0.1,0.8-0.4c1.8-3.2,3.6-6.4,5.4-9.5c0.1-0.2,0.2-0.4,0.3-0.6c-0.5,0-0.8,0-1.2,0c-2.9,0-5.9,0-8.8,0
				s-5.9,0-8.8,0c-0.1,0-0.2,0-0.3,0c-0.1,0-0.3,0-0.4,0c-0.5-0.1-0.8-0.5-0.7-1c0-0.5,0.3-0.8,0.8-0.9c0.1,0,0.3,0,0.4,0
				c0.1,0,0.2,0,0.3,0c4.3,0,8.6,0,12.9,0c1.2,0,2.4,0,3.6,0c0.9,0,1.8,0,2.6,0c0,0,0,0,0,0c0.5,0,0.8-0.2,1-0.6
				c0.3-0.6,0.6-1.2,0.9-1.7C89.5,41.1,90.2,39.9,90.9,38.6L90.9,38.6z"/>
		</g>
		<g>
			<path class="st49" d="M27.2,51.3c0.4,0,0.8,0,1.2,0c2.8,0.1,5.8,0.4,9,0.9c4.6,0.7,9.1,2,13.5,3.2l0.7,0.2l-4.2,4.8l-0.7-0.2
				c-0.9-0.2-1.7-0.4-2.5-0.6C41.7,59,39,58.5,36,58c-1-0.2-2-0.3-3.1-0.4c0.2-0.2,0.3-0.5,0.3-0.8c0.1-0.9-0.6-1.8-1.5-2
				c-0.1,0-0.2,0-0.4,0l-5.2-0.2l-0.8,0l0,0.1l-0.1,0c-0.2,0-0.4,0-0.6,0l-0.5,0c-0.7,0-1.4,0-2.1,0.1c-1,0.1-1.6,0.9-1.5,1.9
				c0,0.4,0.1,0.7,0.3,0.9c-4,0.4-7.6,1.4-10.9,2.8C8.1,61.2,6.5,62,5.1,63l0-1.1c0-1.3,0-2.5,0-3.8c0-0.1,0-0.2,0.1-0.3
				c1.5-1.4,3.5-2.6,6-3.7c2.3-1,4.9-1.7,7.6-2.2c1.4-0.2,2.8-0.4,4.4-0.5C24.8,51.4,26,51.3,27.2,51.3L27.2,51.3 M27.2,50.5
				c-1.3,0-2.7,0.1-4,0.1c-1.5,0.1-3,0.3-4.5,0.5c-2.7,0.4-5.3,1.2-7.8,2.3c-2.3,1-4.4,2.2-6.2,3.9c-0.3,0.3-0.4,0.5-0.4,0.9
				c0,2,0,3.9,0,5.9c0,0.1,0,0.3,0.1,0.5c0.2-0.1,0.4-0.2,0.5-0.3c1.6-1.3,3.4-2.3,5.3-3.1c4.5-1.9,9.2-2.8,14.1-3
				c0.8,0,1.6,0,2.4,0c3.1,0,6.2,0.2,9.2,0.7c2.7,0.4,5.4,0.9,8.1,1.6c1.2,0.3,2.4,0.6,3.7,0.9c1.8-2,3.5-4,5.4-6.1
				c-0.3-0.1-0.5-0.2-0.7-0.2c-4.9-1.4-9.8-2.8-14.9-3.6c-3-0.5-6.1-0.8-9.1-0.9C28,50.5,27.6,50.5,27.2,50.5L27.2,50.5z M26.1,55.5
				C26.1,55.5,26.1,55.5,26.1,55.5c1.7,0,3.5,0.1,5.2,0.1c0.1,0,0.2,0,0.3,0c0.6,0.1,0.9,0.6,0.9,1.1c0,0.5-0.4,0.8-1,0.8
				c0,0,0,0,0,0c-0.5,0-1.1-0.1-1.6-0.1c-1.4,0-2.8,0-4.3,0c-0.7,0-1.4,0-2.1,0c-0.1,0-0.3,0-0.4,0c0,0,0,0,0,0c-0.2,0-0.4,0-0.6,0
				c-0.1,0-0.1,0-0.2,0c-0.6,0-0.9-0.3-0.9-0.9c0-0.6,0.2-1,0.8-1c0.8-0.1,1.7-0.1,2.5-0.1c0.2,0,0.4,0,0.6,0
				C25.5,55.5,25.8,55.5,26.1,55.5L26.1,55.5z"/>
		</g>
		<g>
			<path class="st49" d="M55.5,56.6c0.3,0.1,0.6,0.1,1,0.2c1.1,0.2,2.1,0.5,3.1,0.7l0.8,0.1c2.6,0.5,5.2,1,7.8,1.4
				c3,0.4,5.4,0.7,7.6,0.8c1,0,2,0.1,3.2,0.1c1.4,0,2.8,0,4.2-0.1l1.1,0c0.2,0,0.4,0,0.6,0c-0.1,0.1-0.1,0.2-0.2,0.3
				c-0.2,0.4-0.3,1,0,1.5c0.3,0.7,0.9,1.1,1.6,1.1c0.1,0,0.2,0,0.2,0c2.8-0.3,5.1-0.8,7.3-1.5V64c0,0,0,0,0,0
				c-0.4,0.2-0.8,0.3-1.1,0.4c-2.1,0.6-4.4,1-7.1,1.3c-1.9,0.2-3.6,0.3-5.3,0.3c-0.8,0-1.5,0-2.3-0.1c-2.4-0.1-5.1-0.3-8.2-0.7
				c-3.3-0.3-6.8-1-11.2-2c-1.8-0.4-3.7-0.9-5.5-1.4c-0.6-0.2-1.2-0.3-1.7-0.5l1.9-2.1L55.5,56.6 M55.2,55.7c-1.8,2-3.6,4-5.4,6.1
				c0.3,0.1,0.6,0.2,0.8,0.3c2.6,0.7,5.2,1.4,7.8,2c3.7,0.9,7.5,1.6,11.3,2c2.7,0.3,5.5,0.5,8.3,0.7c0.8,0,1.5,0.1,2.3,0.1
				c1.8,0,3.6-0.1,5.4-0.3c2.5-0.2,4.9-0.6,7.2-1.3c0.6-0.2,1.2-0.4,1.8-0.7c0-1.5,0-3,0-4.5c-0.4,0.1-0.7,0.2-1,0.3
				c-2.3,0.8-4.8,1.2-7.2,1.5c-0.1,0-0.1,0-0.1,0c-0.4,0-0.7-0.2-0.9-0.6c-0.3-0.7,0.1-1.2,1-1.3c2-0.4,4-0.7,6-1.2
				c0.8-0.2,1.5-0.5,2.3-0.8c0-0.3,0-0.6-0.1-0.9c-0.3,0.1-0.5,0.1-0.7,0.2c-0.8,0.2-1.6,0.5-2.4,0.7c-2.4,0.5-4.8,1-7.2,1
				C82.5,59,80.7,59,79,59c-1.1,0-2.1,0-3.2-0.1c-2.5-0.1-5-0.4-7.5-0.8c-2.9-0.4-5.7-1-8.6-1.5C58.2,56.4,56.8,56.1,55.2,55.7
				L55.2,55.7z"/>
		</g>
		<path class="st49" d="M46.2,85.9c0-5,0-10,0-15c0.6-0.2,1.2,0,1.8,0.1c1.6,0.5,2.8,1.6,3.6,3c0.7,1.2,1.2,2.4,1.8,3.6
			c0.9,1.8,2.3,3,4.3,3.3c0.9,0.2,1.8,0,2.7,0c0.2,0,0.3,0,0.5,0c-1.5,2.2-3.4,3.9-5.9,4.9C52.1,87.2,49.2,87,46.2,85.9z"/>
		<path class="st48" d="M103,2.3c0,3,0,5.9,0,8.9c-3.5,2.5-9.6,2.6-14,0.3c0-2.8,0-5.6,0-8.4c1,0.3,2,0.7,3,0.9
			c2.3,0.5,4.7,0.3,6.9-0.4c1.1-0.3,2.3-0.7,3.4-1.1C102.6,2.4,102.7,2.4,103,2.3z"/>
		<g>
			<path class="st49" d="M75.7,16.1v10.5h-5.5c-0.1-2.1-0.1-8.4,0-10.5H75.7 M76.5,15.3c-2.4,0-4.8,0-7.1,0
				c-0.2,0.8-0.2,11.6,0,12.1c2.3,0,4.7,0,7.1,0C76.5,23.3,76.5,19.3,76.5,15.3L76.5,15.3z"/>
		</g>
		<path class="st49" d="M45.8,97.1c-1.1,3.2-1.1,6.3,0.2,9.4c-1.2,0.4-2.4,0.6-3.7,0.5c-2.7-0.3-4.9-1.7-6.8-3.6
			c-0.5-0.5-0.9-0.9-1.4-1.5c0.4-0.5,0.8-0.9,1.2-1.3c1.3-1.3,2.8-2.5,4.6-3.2c1.5-0.6,3.1-0.9,4.7-0.6C45,96.8,45.4,97,45.8,97.1z"
			/>
		<path class="st49" d="M27.2,82.5c-0.7,0.3-1.3,0.4-2,0.5c-2.8,0.3-5.2-0.8-7.4-2.5c-0.9-0.8-1.8-1.7-2.7-2.5
			c1.6-2,3.5-3.5,5.7-4.5c1.7-0.8,3.5-0.9,5.4-0.5c0.2,0,0.4,0.1,0.5,0.2c0,0,0.1,0.1,0.2,0.2c-0.4,1.5-0.8,3-0.8,4.6
			C26.2,79.4,26.7,80.9,27.2,82.5z"/>
		<path class="st49" d="M85.5,89.4c-1.3,0.5-2.5,0.6-3.8,0.5c-2.9-0.4-5.1-1.9-7.1-3.9c-0.3-0.3-0.6-0.6-0.8-0.9
			c-0.1-0.1-0.1-0.2-0.1-0.3c0.1-0.1,0.1-0.2,0.2-0.3c1.8-2,3.8-3.7,6.4-4.5c1.5-0.5,3-0.5,4.6-0.1c0.2,0,0.3,0.1,0.5,0.2
			C84.1,83.2,84.2,86.3,85.5,89.4z"/>
		<path class="st48" d="M87.1,36.9C86.5,37,86,37,85.4,37.1c0-0.3-0.1-0.6-0.1-0.8c0-11.6,0-23.2,0-34.8c0-0.2,0-0.4,0-0.6
			C85.4,0.3,85.8,0,86.3,0c0.5,0,0.8,0.4,0.9,0.9c0,0.2,0,0.3,0,0.5c0,11.5,0,23,0,34.5C87.1,36.2,87.1,36.5,87.1,36.9z"/>
		<path class="st49" d="M44.2,85.1c-0.9,0-1.8,0-2.7,0c-0.3-4.7-0.3-9.3-0.4-14.1c1.1,0,2.1,0,3.1,0C44.2,75.7,44.2,80.4,44.2,85.1z
			"/>
		<g>
			<path class="st49" d="M79,30.2v6.3c-1.7,0.1-3.4,0.1-5,0.1c-0.3,0-0.6,0-0.8,0l3.5-4l2.2-2.5H79 M79.8,29.4c-0.5,0-0.9,0-1.3,0
				c-2.3,2.6-4.7,5.3-7,7.9c0,0.1,0.1,0.1,0.1,0.2c2.7-0.1,5.5,0.1,8.2-0.2C79.8,34.6,79.8,32.1,79.8,29.4L79.8,29.4z"/>
		</g>
		<g>
			<path class="st49" d="M65.8,18.3L65.8,18.3c0.3,0,0.5,0,0.7,0v8.3h-1.7c0-2.6-0.1-5.2-0.1-7.7c0-0.2,0-0.3,0-0.5
				C65.1,18.3,65.4,18.3,65.8,18.3 M65.8,17.4c-0.7,0-1.4,0.1-1.8,0.2c0,0.4-0.1,0.7-0.1,1.1c0,2.6,0,5.2,0.1,7.9
				c0,0.2,0.1,0.4,0.1,0.7c1.1,0,2.1,0,3.2,0c0-3.3,0-6.6,0-9.8C67,17.5,66.4,17.4,65.8,17.4L65.8,17.4z"/>
		</g>
		<path class="st49" d="M14.7,76.1c-1,1-1.4,1.9-0.4,3.1c-1.6,1-3.1,2-4.7,2.9c-0.1,0-0.1-0.1-0.2-0.1c0.1-0.5,0.1-1,0.4-1.5
			c0.3-0.7,0.7-1.4,1.1-2c0.5-0.7,0.5-1.2-0.1-1.9c-0.8-0.9-1.3-2-1.4-3.2c0-0.1,0-0.2,0.1-0.4C11.4,74.1,13,75.1,14.7,76.1z"/>
		<path class="st49" d="M28.4,97c1.7,1,3.3,2,5,3.1c-0.8,1-1.4,1.9-0.3,3.1c-1.6,1-3.1,1.9-4.8,3c0-0.3,0-0.5,0-0.6
			c0.2-1,0.6-2,1.3-2.8c0.7-0.9,0.7-1.2,0-2.2c-0.7-0.9-1.1-1.8-1.3-2.9C28.4,97.4,28.4,97.3,28.4,97z"/>
		<path class="st49" d="M29,81.7c-1.1-2.6-1.2-5.2-0.1-7.8c1.8,1,3.3,2.4,4.6,3.9C32.2,79.3,30.8,80.6,29,81.7z M30.4,76.3
			c-0.6,0-1,0.4-1.1,1c0,0.5,0.4,1,0.9,1c0.5,0,1-0.4,1.1-0.9C31.3,76.9,30.9,76.3,30.4,76.3z"/>
		<path class="st49" d="M72.5,86.2C71,87.1,69.5,88,67.9,89c0-1,0.2-1.7,0.6-2.4c0.2-0.4,0.6-0.8,0.8-1.2c0.5-0.7,0.5-1,0-1.6
			c-0.7-0.9-1.2-1.8-1.4-2.9c0-0.2,0-0.4-0.1-0.8c1.7,1,3.3,2,4.9,3C71.8,84.5,71.6,84.5,72.5,86.2z"/>
		<path class="st49" d="M47.7,97.9c1.7,1,3.2,2.3,4.5,3.8c-0.8,1.3-3.2,3.4-4.3,3.8C46.7,104,46.6,99.5,47.7,97.9z M49.8,101.1
			c0-0.6-0.5-1-1.1-0.9c-0.6,0-0.9,0.4-0.9,1c0,0.6,0.4,1,1,1C49.4,102.2,49.9,101.7,49.8,101.1z"/>
		<path class="st49" d="M87.3,88.5c-1.1-2.1-1.1-6.3,0-7.6c1.7,0.9,3.1,2.3,4.4,3.7C91.3,85.6,88.6,88,87.3,88.5z M89.5,84.1
			c0-0.5-0.5-1-1-1c-0.5,0-1,0.5-1,1c0,0.5,0.5,1,1,1C89,85.1,89.5,84.6,89.5,84.1z"/>
		<path class="st49" d="M48.6,63c-0.6,0.8-1.1,1.4-1.7,2.1c-0.9,1.1-1.8,2.2-2.7,3.3c-0.4,0.5-0.9,0.8-1.6,0.7c-0.4,0-0.7,0-1.3,0
			c0.2-0.3,0.2-0.5,0.3-0.6c1.5-1.9,3.1-3.7,4.6-5.6c0.3-0.3,0.5-0.4,0.9-0.3C47.7,62.8,48.1,62.9,48.6,63z"/>
		<path class="st49" d="M76.4,75.6c1.5,0.9,2.9,1.7,4.4,2.7c-1.1,0.4-2.1,0.8-3.1,1.1C77,78.3,76.4,77.2,76.4,75.6z"/>
		<path class="st49" d="M76.4,94c0.1-1.5,0.6-2.7,1.4-3.8c1,0.4,1.9,0.7,3,1.1C79.3,92.2,77.9,93,76.4,94z"/>
		<path class="st49" d="M36.9,92.7c1.4,0.9,2.8,1.7,4.3,2.6c-1,0.4-2,0.8-2.9,1.1C37.6,95.7,36.9,94.1,36.9,92.7z"/>
		<path class="st49" d="M36.9,111c0-1.5,0.5-2.6,1.3-3.7c1,0.4,1.9,0.7,2.9,1.1C39.8,109.2,38.4,110.1,36.9,111z"/>
		<path class="st49" d="M18.3,68.8c1.3,0.8,2.6,1.6,4.1,2.5c-1.1,0.4-2,0.7-3,1c-0.7-1-1.2-2.1-1.3-3.4
			C18.2,68.8,18.2,68.8,18.3,68.8z"/>
		<path class="st49" d="M19.4,83.4c1,0.4,1.9,0.7,2.9,1.1c-1.4,0.9-2.7,1.6-4.2,2.5C18.2,85.5,18.7,84.4,19.4,83.4z"/>
		<path class="st36" d="M9.2,39.2c-0.6,0-1.1-0.4-1.1-1c0-0.6,0.5-1.1,1.1-1.1c0.6,0,1,0.5,1,1.1C10.2,38.8,9.8,39.2,9.2,39.2z"/>
		<path class="st36" d="M17.7,41.2c-0.6,0-1.1-0.5-1-1.1c0-0.6,0.5-1,1.1-1c0.6,0,1,0.5,1,1.1C18.7,40.7,18.2,41.2,17.7,41.2z"/>
		<path class="st36" d="M27.2,41.5c0,0.6-0.4,1-1,1c-0.6,0-1.1-0.4-1.1-1c0-0.6,0.5-1,1.1-1C26.8,40.5,27.2,40.9,27.2,41.5z"/>
		<path class="st82" d="M37.5,22.4c0-2.3,1.8-4.1,4.1-4.1c2.3,0,4.2,1.8,4.2,4.1c0,2.4-1.8,4.2-4.2,4.2
			C39.3,26.5,37.5,24.7,37.5,22.4z"/>
	</g>
</g>
<g id="Layer_2">
</g>
</svg>
