<?xml version="1.0" encoding="utf-8"?>
<!-- Generator: Adobe Illustrator 27.0.0, SVG Export Plug-In . SVG Version: 6.00 Build 0)  -->
<svg version="1.1" xmlns="http://www.w3.org/2000/svg" xmlns:xlink="http://www.w3.org/1999/xlink" x="0px" y="0px"
	 viewBox="0 0 100 100" style="enable-background:new 0 0 100 100;" xml:space="preserve">
<style type="text/css">
	.st0{fill:none;}
	.st1{opacity:0.9;fill:#1A0B0B;}
	.st2{fill:#F5F8F9;}
	.st3{fill:#FFFFFF;}
	.st4{fill:none;stroke:#343C45;stroke-width:0.2761;stroke-miterlimit:10;}
	.st5{fill:#012169;}
	.st6{opacity:0.4;fill:#333333;}
	.st7{fill:none;stroke:#C5C6C8;stroke-width:0.5039;stroke-miterlimit:10;}
	.st8{fill:#FAE8E8;}
	.st9{fill:none;stroke:#EA6061;stroke-width:0.9098;stroke-linecap:round;stroke-linejoin:round;stroke-miterlimit:10;}
	.st10{fill:#EA6061;stroke:#EA6061;stroke-width:0.25;stroke-miterlimit:10;}
	.st11{fill:#E3F6EB;}
	.st12{fill:none;stroke:#51AE3B;stroke-width:0.9098;stroke-linecap:round;stroke-linejoin:round;stroke-miterlimit:10;}
	.st13{fill:#20201F;}
	.st14{fill:#EFF2F8;}
	.st15{fill:#2A367E;}
	.st16{fill:#EA6061;}
	.st17{fill:none;stroke:#343C45;stroke-width:0.2426;stroke-miterlimit:10;}
	.st18{fill:none;stroke:#000000;stroke-width:0.5;stroke-miterlimit:10;}
	.st19{fill:#1A0B0B;}
	.st20{fill:none;stroke:#343C45;stroke-width:0.75;stroke-miterlimit:10;}
	.st21{fill:none;stroke:#333333;stroke-linecap:round;stroke-miterlimit:10;}
	.st22{opacity:0.5;}
	.st23{fill:none;stroke:#343C45;stroke-width:0.25;stroke-miterlimit:10;}
	.st24{opacity:0.95;}
	.st25{fill:url(#SVGID_1_);}
	.st26{fill:url(#SVGID_00000091732591263635502060000007632720101403639442_);}
	.st27{fill:#032D77;}
	.st28{opacity:0;fill:#032D77;}
	.st29{opacity:0.6;fill:#FFFFFF;}
	.st30{opacity:0.6;}
	.st31{fill:#EEF1F7;}
	.st32{fill:#333333;}
	.st33{fill:url(#SVGID_00000017508611266068642080000015671458441646504603_);}
	.st34{fill:url(#SVGID_00000059289767746731280070000005469168313074428036_);}
	.st35{fill:url(#SVGID_00000099658066116358660290000008964208626312937611_);}
	.st36{fill:#FAAF40;}
	.st37{fill:url(#SVGID_00000101079382489335094080000005519599439898857390_);}
	.st38{opacity:0.5;fill:url(#SVGID_00000072275219124464931380000011977879367717908902_);}
	.st39{fill:#E8E8E8;}
	.st40{fill:none;stroke:#333333;stroke-width:0.7865;stroke-linecap:round;stroke-miterlimit:10;}
	.st41{fill:url(#SVGID_00000090271641940112178630000009163452902329397165_);}
	.st42{fill:#0659ED;}
	.st43{fill:#02399B;}
	.st44{fill:url(#SVGID_00000181059300634466321080000013023837577353683585_);}
	.st45{fill:#7F00FF;}
	.st46{fill:#6900E2;}
	.st47{fill:#5200C6;}
	.st48{fill:#36B24A;}
	.st49{fill:#060139;}
	.st50{fill:none;stroke:#060139;stroke-width:1.8754;stroke-miterlimit:10;}
	.st51{display:none;fill:#37B34A;}
	.st52{display:none;fill-rule:evenodd;clip-rule:evenodd;fill:#37B34A;}
	.st53{fill-rule:evenodd;clip-rule:evenodd;fill:#37B34A;}
	.st54{fill:#37B34A;}
	.st55{fill:#08F3F9;}
	.st56{display:none;}
	.st57{display:inline;}
	.st58{fill:#BCBABB;}
	.st59{display:inline;fill:#2E1F24;}
	.st60{fill:url(#SVGID_00000142864063721989898010000014602571237933295545_);}
	.st61{fill:#FFFFFF;stroke:#919396;stroke-width:0.2269;stroke-miterlimit:10;}
	.st62{fill:#2A2A2A;}
	.st63{fill:url(#SVGID_00000074406338275835658490000018328197688132089014_);}
	.st64{fill:none;stroke:#060139;stroke-width:1.75;stroke-linecap:round;stroke-miterlimit:10;}
	.st65{fill:url(#SVGID_00000018209825656386934750000018370962212188775357_);}
	.st66{fill:#F4F4F4;}
	.st67{fill:none;stroke:#A9B4C6;stroke-width:0.5;stroke-miterlimit:10;}
	.st68{fill:#212121;}
	.st69{fill:#2E1F24;}
	.st70{fill:url(#SVGID_00000052074172292092397480000002673333275141777575_);}
	.st71{fill:url(#SVGID_00000033337086127843891420000011796529558482476175_);}
	.st72{fill:none;stroke:#C5C6C8;stroke-width:0.5;stroke-miterlimit:10;}
	.st73{fill:none;stroke:#012169;stroke-miterlimit:10;}
	.st74{fill:#F2FCFC;}
	.st75{opacity:0;fill:#FFFFFF;}
	.st76{fill:none;stroke:#333333;stroke-width:1.0354;stroke-linecap:round;stroke-linejoin:round;}
	.st77{fill:none;stroke:#FFFFFF;stroke-width:2;stroke-linecap:round;stroke-miterlimit:10;}
	.st78{fill:none;stroke:#333333;stroke-width:1.5;stroke-miterlimit:10;}
	.st79{fill:none;stroke:#FFFFFF;stroke-width:1.5;stroke-linecap:round;stroke-miterlimit:10;}
	.st80{fill:#FFFFFF;stroke:#DFDFE5;stroke-miterlimit:10;}
	.st81{fill:#EE3553;}
	.st82{fill:none;stroke:#EE3553;stroke-width:0.8203;stroke-miterlimit:10;}
	.st83{fill:none;stroke:#DFDFE5;stroke-miterlimit:10;}
	.st84{fill:#455A64;}
	.st85{fill:#E0F7FA;}
	.st86{fill:none;stroke:#060139;stroke-width:1.5;stroke-linecap:round;stroke-linejoin:round;}
	.st87{fill:#37B34A;stroke:#37B34A;stroke-width:0.3649;stroke-miterlimit:10;}
	.st88{fill:none;stroke:#060139;stroke-width:2.3665;stroke-miterlimit:10;}
	.st89{fill:none;stroke:#060139;stroke-width:2.3665;stroke-linecap:round;stroke-miterlimit:10;}
	.st90{fill:#F6F7F7;}
	.st91{fill:#FFA77B;}
	.st92{fill:#FFCFB8;}
	.st93{fill:#CFF1FB;}
	.st94{fill:#F98770;}
	.st95{fill:#746887;}
	.st96{fill:none;stroke:#060139;stroke-width:1.5777;stroke-miterlimit:10;}
	.st97{fill:#060139;stroke:#FFFFFF;stroke-width:0.75;stroke-miterlimit:10;}
	.st98{fill:#3E52D4;}
	.st99{fill:url(#SVGID_00000142897994264478358150000004340151339393325998_);}
	.st100{fill:none;stroke:#0659ED;stroke-width:2;stroke-miterlimit:10;}
	.st101{fill:url(#SVGID_00000093178246538597260210000004488125269700524688_);}
</style>
<g id="Layer_1">
	<g>
		<path class="st49" d="M23,78.9c0.3-0.9,0.8-1.8,1.5-2.6c2.9-3.5,8.3-3.7,11.5-0.4c0.9,0.9,1.5,1.9,1.9,3.1
			c0.1,0.3,0.2,0.3,0.4,0.2c2.6-0.5,4.8-1.6,6.6-3.5c2.2-2.3,3.2-5,3.2-8.1c0-11.8,0-23.5,0-35.3c0-5.2,2.2-9.4,6.4-12.6
			c1.6-1.2,3.3-2,5.2-2.5c0.2-0.1,0.3-0.2,0.4-0.4c0.7-3.2,3.5-5.7,6.7-6c3.8-0.4,7.3,2,8.4,5.6c0.1,0.2,0.2,0.3,0.4,0.4
			c3.2,0.4,6.1,1.7,8.5,3.9c2.4,2.1,3.9,4.8,4.7,7.9c0.3,1.3,0.5,2.7,0.5,4c0,15.5,0,31,0,46.6c0,0.3,0.1,0.5,0.4,0.6
			c3.3,1.1,5.6,4.2,5.5,7.7c-0.1,3.8-3,7-6.7,7.5c-4.2,0.6-8.2-2.4-8.9-6.6c-0.6-3.8,1.8-7.5,5.5-8.6c0.2-0.1,0.3-0.2,0.3-0.4
			c0-15.8,0-31.6,0-47.5c0-2.7-1-5.2-2.8-7.2c-1.9-2.2-4.4-3.5-7.3-4c-1.4,3.7-3.9,5.8-7.9,5.7c-3.5-0.1-5.8-2.1-7.1-5.3
			c-0.4,0.1-0.8,0.3-1.2,0.5c-3.8,1.8-6.1,4.8-6.9,8.9C52,31.2,52,31.9,52,32.6c0,11.6,0,23.1,0,34.7c0,2.8-0.5,5.4-1.9,7.8
			c-2.3,4.1-5.8,6.8-10.4,7.9c-0.5,0.1-0.9,0.2-1.4,0.2c-0.2,0-0.3,0.1-0.3,0.3c-0.6,2.1-1.9,3.7-3.8,4.8
			c-4.5,2.4-10.1-0.1-11.3-5.1c-0.1-0.3-0.2-0.4-0.4-0.4C16.4,80.9,12.7,77,11.1,71c-0.3-1.2-0.4-2.3-0.4-3.5c0-15.6,0-31.1,0-46.7
			c0-0.3-0.1-0.4-0.4-0.5c-3.1-1.1-5-3.3-5.4-6.6c-0.5-4.1,2.5-8,6.5-8.6c4.1-0.6,8.1,2,8.9,6.1c0.8,3.9-1.5,7.9-5.4,9.1
			c-0.3,0.1-0.4,0.2-0.4,0.5c0,15.6,0,31.1,0,46.7c0,3,0.9,5.7,2.9,7.9C19,77,20.8,78.2,23,78.9C22.9,78.9,23,78.9,23,78.9z
			 M12.8,8.8c-2.2,0-3.9,1.7-3.9,3.8c0,2.3,1.7,4,3.9,4c2.2,0,3.9-1.7,3.9-3.9C16.7,10.6,15,8.8,12.8,8.8z M67.6,14.7
			c-2.2,0-3.9,1.7-3.9,3.9c0,2.2,1.7,3.9,3.9,3.9c2.2,0,3.9-1.8,3.9-3.9C71.6,16.4,69.8,14.7,67.6,14.7z M91.2,87.3
			c0-2.2-1.7-3.9-3.9-3.9c-2.2,0-3.9,1.8-3.9,3.9c0,2.2,1.7,3.9,3.9,3.9C89.4,91.2,91.2,89.5,91.2,87.3z M30.4,77.5
			c-2.2,0-3.9,1.7-3.9,3.9c0,2.2,1.7,3.9,3.9,3.9c2.2,0,3.9-1.7,3.9-3.9C34.3,79.2,32.6,77.5,30.4,77.5z"/>
		<path class="st87" d="M30.3,58c0-2.6,0-5.1,0-7.7c-0.4-0.1-0.8-0.1-1.1-0.2c-2.7-0.6-4.3-3.1-3.9-5.8c0.3-1.5,1.2-2.5,2.4-3.2
			c0.7-0.4,1.4-0.6,2.2-0.7c0.3,0,0.3-0.1,0.3-0.4c0-0.5,0-1,0-1.5c0-0.5,0.3-0.8,0.7-0.8c0.4,0,0.7,0.3,0.7,0.8c0,0.5,0,1.1,0,1.6
			c0,0.2,0.1,0.3,0.3,0.3c1.2,0.2,2.4,0.6,3.3,1.4c0.8,0.8,1.3,1.7,1.5,2.8c0,0.4-0.2,0.8-0.6,0.8c-0.4,0.1-0.8-0.2-0.8-0.6
			c-0.2-1.4-1.1-2.3-2.3-2.8c-0.4-0.2-0.8-0.2-1.3-0.4c0,0.1,0,0.2,0,0.3c0,2.2,0,4.4,0,6.6c0,0.3,0.1,0.3,0.3,0.4
			c1.7,0.2,3.2,0.8,4.3,2.1c1.8,2.2,1.6,5-0.7,6.8c-1.1,0.9-2.3,1.3-3.6,1.5c-0.1,0-0.2,0-0.4,0.1c0,0.7,0,1.3,0,2
			c0,0.2-0.1,0.4-0.2,0.6c-0.2,0.3-0.5,0.3-0.8,0.2c-0.3-0.1-0.5-0.3-0.5-0.7c0-0.6,0-1.2,0-1.8c0-0.2-0.1-0.3-0.3-0.4
			c-1.9-0.3-3.5-1-4.6-2.6c-0.4-0.6-0.7-1.3-0.8-2.1c0-0.4,0.2-0.7,0.6-0.8c0.4-0.1,0.7,0.2,0.8,0.6c0.3,2,1.7,2.9,3.4,3.4
			C29.7,57.9,30,58,30.3,58z M31.7,58c1.4-0.2,2.6-0.7,3.6-1.7c1-1.1,1.1-2.4,0.4-3.7c-0.8-1.3-2-2-3.5-2.2c-0.1,0-0.3,0-0.5,0
			C31.7,53,31.7,55.5,31.7,58z M30.3,48.9c0-2.3,0-4.7,0-7c-1.8-0.1-3.7,1.6-3.6,3.4C26.7,47.5,28.4,48.8,30.3,48.9z"/>
	</g>
	<g>
		<path class="st49" d="M23,78.9c0.3-0.9,0.8-1.8,1.5-2.6c2.9-3.5,8.3-3.7,11.5-0.4c0.9,0.9,1.5,1.9,1.9,3.1
			c0.1,0.3,0.2,0.3,0.4,0.2c2.6-0.5,4.8-1.6,6.6-3.5c2.2-2.3,3.2-5,3.2-8.1c0-11.8,0-23.5,0-35.3c0-5.2,2.2-9.4,6.4-12.6
			c1.6-1.2,3.3-2,5.2-2.5c0.2-0.1,0.3-0.2,0.4-0.4c0.7-3.2,3.5-5.7,6.7-6c3.8-0.4,7.3,2,8.4,5.6c0.1,0.2,0.2,0.3,0.4,0.4
			c3.2,0.4,6.1,1.7,8.5,3.9c2.4,2.1,3.9,4.8,4.7,7.9c0.3,1.3,0.5,2.7,0.5,4c0,15.5,0,31,0,46.6c0,0.3,0.1,0.5,0.4,0.6
			c3.3,1.1,5.6,4.2,5.5,7.7c-0.1,3.8-3,7-6.7,7.5c-4.2,0.6-8.2-2.4-8.9-6.6c-0.6-3.8,1.8-7.5,5.5-8.6c0.2-0.1,0.3-0.2,0.3-0.4
			c0-15.8,0-31.6,0-47.5c0-2.7-1-5.2-2.8-7.2c-1.9-2.2-4.4-3.5-7.3-4c-1.4,3.7-3.9,5.8-7.9,5.7c-3.5-0.1-5.8-2.1-7.1-5.3
			c-0.4,0.1-0.8,0.3-1.2,0.5c-3.8,1.8-6.1,4.8-6.9,8.9C52,31.2,52,31.9,52,32.6c0,11.6,0,23.1,0,34.7c0,2.8-0.5,5.4-1.9,7.8
			c-2.3,4.1-5.8,6.8-10.4,7.9c-0.5,0.1-0.9,0.2-1.4,0.2c-0.2,0-0.3,0.1-0.3,0.3c-0.6,2.1-1.9,3.7-3.8,4.8
			c-4.5,2.4-10.1-0.1-11.3-5.1c-0.1-0.3-0.2-0.4-0.4-0.4C16.4,80.9,12.7,77,11.1,71c-0.3-1.2-0.4-2.3-0.4-3.5c0-15.6,0-31.1,0-46.7
			c0-0.3-0.1-0.4-0.4-0.5c-3.1-1.1-5-3.3-5.4-6.6c-0.5-4.1,2.5-8,6.5-8.6c4.1-0.6,8.1,2,8.9,6.1c0.8,3.9-1.5,7.9-5.4,9.1
			c-0.3,0.1-0.4,0.2-0.4,0.5c0,15.6,0,31.1,0,46.7c0,3,0.9,5.7,2.9,7.9C19,77,20.8,78.2,23,78.9C22.9,78.9,23,78.9,23,78.9z
			 M12.8,8.8c-2.2,0-3.9,1.7-3.9,3.8c0,2.3,1.7,4,3.9,4c2.2,0,3.9-1.7,3.9-3.9C16.7,10.6,15,8.8,12.8,8.8z M67.6,14.7
			c-2.2,0-3.9,1.7-3.9,3.9c0,2.2,1.7,3.9,3.9,3.9c2.2,0,3.9-1.8,3.9-3.9C71.6,16.4,69.8,14.7,67.6,14.7z M91.2,87.3
			c0-2.2-1.7-3.9-3.9-3.9c-2.2,0-3.9,1.8-3.9,3.9c0,2.2,1.7,3.9,3.9,3.9C89.4,91.2,91.2,89.5,91.2,87.3z M30.4,77.5
			c-2.2,0-3.9,1.7-3.9,3.9c0,2.2,1.7,3.9,3.9,3.9c2.2,0,3.9-1.7,3.9-3.9C34.3,79.2,32.6,77.5,30.4,77.5z"/>
		<path class="st87" d="M30.3,58c0-2.6,0-5.1,0-7.7c-0.4-0.1-0.8-0.1-1.1-0.2c-2.7-0.6-4.3-3.1-3.9-5.8c0.3-1.5,1.2-2.5,2.4-3.2
			c0.7-0.4,1.4-0.6,2.2-0.7c0.3,0,0.3-0.1,0.3-0.4c0-0.5,0-1,0-1.5c0-0.5,0.3-0.8,0.7-0.8c0.4,0,0.7,0.3,0.7,0.8c0,0.5,0,1.1,0,1.6
			c0,0.2,0.1,0.3,0.3,0.3c1.2,0.2,2.4,0.6,3.3,1.4c0.8,0.8,1.3,1.7,1.5,2.8c0,0.4-0.2,0.8-0.6,0.8c-0.4,0.1-0.8-0.2-0.8-0.6
			c-0.2-1.4-1.1-2.3-2.3-2.8c-0.4-0.2-0.8-0.2-1.3-0.4c0,0.1,0,0.2,0,0.3c0,2.2,0,4.4,0,6.6c0,0.3,0.1,0.3,0.3,0.4
			c1.7,0.2,3.2,0.8,4.3,2.1c1.8,2.2,1.6,5-0.7,6.8c-1.1,0.9-2.3,1.3-3.6,1.5c-0.1,0-0.2,0-0.4,0.1c0,0.7,0,1.3,0,2
			c0,0.2-0.1,0.4-0.2,0.6c-0.2,0.3-0.5,0.3-0.8,0.2c-0.3-0.1-0.5-0.3-0.5-0.7c0-0.6,0-1.2,0-1.8c0-0.2-0.1-0.3-0.3-0.4
			c-1.9-0.3-3.5-1-4.6-2.6c-0.4-0.6-0.7-1.3-0.8-2.1c0-0.4,0.2-0.7,0.6-0.8c0.4-0.1,0.7,0.2,0.8,0.6c0.3,2,1.7,2.9,3.4,3.4
			C29.7,57.9,30,58,30.3,58z M31.7,58c1.4-0.2,2.6-0.7,3.6-1.7c1-1.1,1.1-2.4,0.4-3.7c-0.8-1.3-2-2-3.5-2.2c-0.1,0-0.3,0-0.5,0
			C31.7,53,31.7,55.5,31.7,58z M30.3,48.9c0-2.3,0-4.7,0-7c-1.8-0.1-3.7,1.6-3.6,3.4C26.7,47.5,28.4,48.8,30.3,48.9z"/>
	</g>
</g>
<g id="Layer_2">
</g>
</svg>
