<?xml version="1.0" encoding="utf-8"?>
<!-- Generator: Adobe Illustrator 27.0.0, SVG Export Plug-In . SVG Version: 6.00 Build 0)  -->
<svg version="1.1" xmlns="http://www.w3.org/2000/svg" xmlns:xlink="http://www.w3.org/1999/xlink" x="0px" y="0px"
	 viewBox="0 0 100 100" style="enable-background:new 0 0 100 100;" xml:space="preserve">
<style type="text/css">
	.st0{fill:none;}
	.st1{opacity:0.9;fill:#1A0B0B;}
	.st2{fill:#F5F8F9;}
	.st3{fill:#FFFFFF;}
	.st4{fill:none;stroke:#343C45;stroke-width:0.2761;stroke-miterlimit:10;}
	.st5{fill:#012169;}
	.st6{opacity:0.4;fill:#333333;}
	.st7{fill:none;stroke:#C5C6C8;stroke-width:0.5039;stroke-miterlimit:10;}
	.st8{fill:#FAE8E8;}
	.st9{fill:none;stroke:#EA6061;stroke-width:0.9098;stroke-linecap:round;stroke-linejoin:round;stroke-miterlimit:10;}
	.st10{fill:#EA6061;stroke:#EA6061;stroke-width:0.25;stroke-miterlimit:10;}
	.st11{fill:#E3F6EB;}
	.st12{fill:none;stroke:#51AE3B;stroke-width:0.9098;stroke-linecap:round;stroke-linejoin:round;stroke-miterlimit:10;}
	.st13{fill:#20201F;}
	.st14{fill:#EFF2F8;}
	.st15{fill:#2A367E;}
	.st16{fill:#EA6061;}
	.st17{fill:none;stroke:#343C45;stroke-width:0.2426;stroke-miterlimit:10;}
	.st18{fill:none;stroke:#000000;stroke-width:0.5;stroke-miterlimit:10;}
	.st19{fill:#1A0B0B;}
	.st20{fill:none;stroke:#343C45;stroke-width:0.75;stroke-miterlimit:10;}
	.st21{fill:none;stroke:#333333;stroke-linecap:round;stroke-miterlimit:10;}
	.st22{opacity:0.5;}
	.st23{fill:none;stroke:#343C45;stroke-width:0.25;stroke-miterlimit:10;}
	.st24{opacity:0.95;}
	.st25{fill:url(#SVGID_1_);}
	.st26{fill:url(#SVGID_00000155110076009793065430000008279494545591878557_);}
	.st27{fill:#032D77;}
	.st28{opacity:0;fill:#032D77;}
	.st29{opacity:0.6;fill:#FFFFFF;}
	.st30{opacity:0.6;}
	.st31{fill:#EEF1F7;}
	.st32{fill:#333333;}
	.st33{fill:url(#SVGID_00000182486612611101784220000006213548822316489364_);}
	.st34{fill:url(#SVGID_00000081633713094030143180000008094204700794790791_);}
	.st35{fill:url(#SVGID_00000145038109848156223320000001569931533516292226_);}
	.st36{fill:#FAAF40;}
	.st37{fill:url(#SVGID_00000183930305046007179530000014569085702112409513_);}
	.st38{opacity:0.5;fill:url(#SVGID_00000155146249587764354260000013404799224971167624_);}
	.st39{fill:#E8E8E8;}
	.st40{fill:none;stroke:#333333;stroke-width:0.7865;stroke-linecap:round;stroke-miterlimit:10;}
	.st41{fill:url(#SVGID_00000097487706889818293930000004736342203143457691_);}
	.st42{fill:#0659ED;}
	.st43{fill:#02399B;}
	.st44{fill:url(#SVGID_00000057125777843689609480000004786214843175959999_);}
	.st45{fill:#7F00FF;}
	.st46{fill:#6900E2;}
	.st47{fill:#5200C6;}
	.st48{fill:#36B24A;}
	.st49{fill:#060139;}
	.st50{fill:none;stroke:#060139;stroke-width:1.8754;stroke-miterlimit:10;}
	.st51{display:none;fill:#37B34A;}
	.st52{display:none;fill-rule:evenodd;clip-rule:evenodd;fill:#37B34A;}
	.st53{fill-rule:evenodd;clip-rule:evenodd;fill:#37B34A;}
	.st54{fill:#37B34A;}
	.st55{fill:#08F3F9;}
	.st56{display:none;}
	.st57{display:inline;}
	.st58{fill:#BCBABB;}
	.st59{display:inline;fill:#2E1F24;}
	.st60{fill:url(#SVGID_00000086678111179491694590000003660738963291031172_);}
	.st61{fill:#FFFFFF;stroke:#919396;stroke-width:0.2269;stroke-miterlimit:10;}
	.st62{fill:#2A2A2A;}
	.st63{fill:url(#SVGID_00000037691720179143354290000003828538916015969930_);}
	.st64{fill:none;stroke:#060139;stroke-width:1.75;stroke-linecap:round;stroke-miterlimit:10;}
	.st65{fill:url(#SVGID_00000036959884528162393800000016406251899569300637_);}
	.st66{fill:#F4F4F4;}
	.st67{fill:none;stroke:#A9B4C6;stroke-width:0.5;stroke-miterlimit:10;}
	.st68{fill:#212121;}
	.st69{fill:#2E1F24;}
	.st70{fill:url(#SVGID_00000076585836983756670130000011117936815944925885_);}
	.st71{fill:url(#SVGID_00000124137291636973804180000010770101346016316297_);}
	.st72{fill:none;stroke:#C5C6C8;stroke-width:0.5;stroke-miterlimit:10;}
	.st73{fill:none;stroke:#012169;stroke-miterlimit:10;}
	.st74{fill:#F2FCFC;}
	.st75{opacity:0;fill:#FFFFFF;}
	.st76{fill:none;stroke:#333333;stroke-width:1.0354;stroke-linecap:round;stroke-linejoin:round;}
	.st77{fill:none;stroke:#FFFFFF;stroke-width:2;stroke-linecap:round;stroke-miterlimit:10;}
	.st78{fill:none;stroke:#333333;stroke-width:1.5;stroke-miterlimit:10;}
	.st79{fill:none;stroke:#FFFFFF;stroke-width:1.5;stroke-linecap:round;stroke-miterlimit:10;}
	.st80{fill:#FFFFFF;stroke:#DFDFE5;stroke-miterlimit:10;}
	.st81{fill:#EE3553;}
	.st82{fill:none;stroke:#EE3553;stroke-width:0.8203;stroke-miterlimit:10;}
	.st83{fill:none;stroke:#DFDFE5;stroke-miterlimit:10;}
	.st84{fill:#455A64;}
	.st85{fill:#E0F7FA;}
	.st86{fill:none;stroke:#060139;stroke-width:1.5;stroke-linecap:round;stroke-linejoin:round;}
	.st87{fill:#37B34A;stroke:#37B34A;stroke-width:0.3649;stroke-miterlimit:10;}
	.st88{fill:none;stroke:#060139;stroke-width:2.3665;stroke-miterlimit:10;}
	.st89{fill:none;stroke:#060139;stroke-width:2.3665;stroke-linecap:round;stroke-miterlimit:10;}
	.st90{fill:#F6F7F7;}
	.st91{fill:#FFA77B;}
	.st92{fill:#FFCFB8;}
	.st93{fill:#CFF1FB;}
	.st94{fill:#F98770;}
	.st95{fill:#746887;}
	.st96{fill:none;stroke:#060139;stroke-width:1.5777;stroke-miterlimit:10;}
	.st97{fill:#060139;stroke:#FFFFFF;stroke-width:0.75;stroke-miterlimit:10;}
	.st98{fill:#3E52D4;}
	.st99{fill:url(#SVGID_00000166654408512726759110000017013345398618126996_);}
	.st100{fill:none;stroke:#0659ED;stroke-width:2;stroke-miterlimit:10;}
	.st101{fill:url(#SVGID_00000093860448837169030880000016449709835239036321_);}
</style>
<g id="Layer_1">
	<path class="st49" d="M83.3,87L71.5,87c-9.1,0-18.2-0.1-27.3-0.1c-4.1,0-8.2,0-12.3,0l-11.6,0c-1.6,0-3.3,0-4.9,0
		c-0.3,0-0.6,0-0.9,0c-1.4,0-2.2,0.8-2.3,2.2c0,1.4-0.1,2.9,0,4.4c0,1.5,0.9,2.4,2.4,2.4c1.3,0,2.5,0,3.8,0l7.7,0
		c5.4,0,10.9,0,16.3,0c2.1,0,4.1,0,6.2,0c1.7,0,3.5,0,5.2,0c7.1,0,14.2,0.1,21.3,0.1l4.8,0c3.5,0,6.9,0,10.4,0
		c1.6,0,2.5-0.9,2.5-2.5L93,62.7c0-10,0.1-19.9,0.1-29.9l0-15.3c0-1.4-0.8-2.3-2.1-2.4c-1.6-0.1-3.2-0.1-4.8,0c-1.2,0.1-2,1-2,2.2
		c0,0.5,0,1,0,1.5l0,5.3c0,4,0,8-0.1,12c0,11.1-0.1,22.3-0.1,33.4c0,3.4,0,6.9,0,10.3l0,6.2c0,0.1,0,0.3,0,0.4l0,0.5l-0.4,0
		C83.4,87,83.4,87,83.3,87z M85.9,89l0.2-71.8h5L90.9,94l-76.8-0.2v-5L85.9,89z"/>
	<g>
		<path class="st98" d="M21,72c-0.1-5.9,4.7-11.3,11.3-11.3c6.6,0,11.5,5.5,11.3,11.6c-0.1,6.1-5.3,11.1-11.4,11
			C26,83.3,21,78.2,21,72z M23.7,72c-0.1,4.4,3.5,8.6,8.6,8.6c4.8,0,8.6-3.9,8.6-8.7c0-4.7-3.9-8.6-8.6-8.6
			C27.6,63.4,23.7,67.3,23.7,72z"/>
		<path class="st49" d="M76.7,27.6c0.1,5.5-4.5,10-10.1,9.8c-5.2-0.2-9.6-4.5-9.4-10c0.1-5.7,4.9-9.9,10.3-9.6
			C72.8,18.1,76.8,22.6,76.7,27.6z M74,27.7c0-3.9-3.1-7.1-7-7.1c-4,0-7.1,3.1-7.2,7.1c0,3.9,3.2,7.1,7,7.1
			C70.9,34.7,74,31.6,74,27.7z"/>
		<path class="st54" d="M41.2,58.5c0.1-5.7,4.6-9.7,9.7-9.7c5.3,0,9.7,4.3,9.7,9.7c0,5.7-4.6,9.7-9.7,9.7
			C45.6,68.2,41.3,64,41.2,58.5z M57.9,58.6c0-3.9-3.1-7-7-7c-3.8,0-6.9,3.1-7,7c0,3.9,3.3,7,7,7C54.8,65.5,57.9,62.4,57.9,58.6z"/>
		<path class="st81" d="M22.7,48.8c0-4.4,3.5-7.9,7.9-7.9c4.1,0,7.8,3.2,7.9,7.8c0.1,4.4-3.6,8.1-8,8C25.8,56.7,22.6,52.8,22.7,48.8
			z M30.5,54c2.9,0.1,5.2-2.2,5.4-5.1c0.1-2.7-2.2-5.2-4.9-5.3c-2.9-0.1-5.4,2-5.6,5C25.2,51.5,27.6,54,30.5,54z"/>
		<path class="st81" d="M37,26.2c0,4.2-3.4,7.5-7.5,7.5c-4.2,0-7.5-3.4-7.5-7.5c0-4.2,3.4-7.5,7.6-7.5C33.7,18.7,37,22.1,37,26.2z
			 M34.3,26.2c0-2.6-2.1-4.8-4.7-4.8c-2.7,0-4.9,2.1-4.8,4.8c0,2.7,2.2,4.8,4.8,4.8C32.2,31,34.3,28.8,34.3,26.2z"/>
		<path class="st36" d="M79.9,63.7c0.1,3.7-3,7.2-7.2,7.1c-3.9,0-7.1-3.3-7.1-7.3c0-3.9,3.3-7.1,7.3-7.1
			C76.7,56.6,80,59.8,79.9,63.7z M72.7,68.2c2.4,0,4.4-1.8,4.5-4.3c0.1-2.6-1.8-4.6-4.5-4.6c-2.4,0-4.5,2-4.5,4.5
			C68.3,66.1,70.3,68.1,72.7,68.2z"/>
		<path class="st81" d="M40,29.4c0-3,2.3-6.1,6.2-6.1c3.3,0,6,2.7,6,6.1c0,3.3-2.8,6.1-6.2,6.1C42.8,35.6,40,32.8,40,29.4z
			 M49.5,29.5c0-1.8-1.2-3.4-3.3-3.5c-2-0.1-3.5,1.3-3.6,3.3c-0.1,1.8,1.3,3.4,3.4,3.5C48,32.9,49.5,31.4,49.5,29.5z"/>
		<path class="st36" d="M74.1,46.5c0,3.1-2.4,5.4-5.5,5.4c-2.9,0-5.3-2.5-5.3-5.5c0-3,2.5-5.4,5.5-5.3
			C71.7,41.1,74.1,43.5,74.1,46.5z M71.4,46.5c0-1.5-1.2-2.7-2.7-2.7c-1.5,0-2.7,1.2-2.7,2.7c0,1.5,1.2,2.7,2.7,2.7
			C70.2,49.2,71.4,48,71.4,46.5z"/>
		<path class="st98" d="M60.8,40.8c0,2.6-2.1,4.7-4.8,4.7c-2.6,0-4.7-2.1-4.7-4.7c0-2.6,2.1-4.8,4.8-4.8
			C58.6,36,60.8,38.2,60.8,40.8z M58.1,40.8c0-1.1-1-2.1-2.1-2c-1.1,0-2,1-2,2.1c0,1.1,1,2.1,2.1,2.1C57.1,42.8,58.1,41.9,58.1,40.8
			z"/>
		<path class="st54" d="M46.5,42.2c0,2.3-1.9,4.2-4.2,4.2c-2.3,0-4.2-1.9-4.2-4.2c0-2.3,1.9-4.2,4.2-4.2
			C44.6,38,46.5,39.9,46.5,42.2z M40.8,42.2c0,0.8,0.6,1.5,1.5,1.5c0.8,0,1.5-0.7,1.5-1.5c0-0.8-0.7-1.5-1.5-1.5
			C41.6,40.7,40.9,41.4,40.8,42.2z"/>
	</g>
	<path class="st49" d="M87.7,10.5c0-1.3,0-2.6,0-3.9c0-1.7-0.8-2.5-2.5-2.5l-4.1,0H44.4l-35.1,0c-1.6,0-2.5,0.9-2.5,2.5l0,1.6
		c0,6.6,0,13.2,0,19.8c0,4.6,0,9.2,0,13.8c0,4.7,0,9.4,0,14c0,1.1,0,2.1,0,3.2c0,0.9,0,1.9,0,2.8c0,3.6,0,7.3,0,10.9l0,4.3l0,1.7
		c0,1.3,0,2.6,0,3.9c0,1.5,0.9,2.4,2.4,2.4l4,0c1.6,0,2.5-0.9,2.5-2.5l0-14.5l0-54.9l69.4,0C86.8,13,87.7,12.1,87.7,10.5z M13.8,11
		v71.9H8.9V6.1h76.8V11H13.8z"/>
	<g>
		<path class="st98" d="M21,72c-0.1-5.9,4.7-11.3,11.3-11.3c6.6,0,11.5,5.5,11.3,11.6c-0.1,6.1-5.3,11.1-11.4,11
			C26,83.3,21,78.2,21,72z M23.7,72c-0.1,4.4,3.5,8.6,8.6,8.6c4.8,0,8.6-3.9,8.6-8.7c0-4.7-3.9-8.6-8.6-8.6
			C27.6,63.4,23.7,67.3,23.7,72z"/>
		<path class="st49" d="M76.7,27.6c0.1,5.5-4.5,10-10.1,9.8c-5.2-0.2-9.6-4.5-9.4-10c0.1-5.7,4.9-9.9,10.3-9.6
			C72.8,18.1,76.8,22.6,76.7,27.6z M74,27.7c0-3.9-3.1-7.1-7-7.1c-4,0-7.1,3.1-7.2,7.1c0,3.9,3.2,7.1,7,7.1
			C70.9,34.7,74,31.6,74,27.7z"/>
		<path class="st54" d="M41.2,58.5c0.1-5.7,4.6-9.7,9.7-9.7c5.3,0,9.7,4.3,9.7,9.7c0,5.7-4.6,9.7-9.7,9.7
			C45.6,68.2,41.3,64,41.2,58.5z M57.9,58.6c0-3.9-3.1-7-7-7c-3.8,0-6.9,3.1-7,7c0,3.9,3.3,7,7,7C54.8,65.5,57.9,62.4,57.9,58.6z"/>
		<path class="st81" d="M22.7,48.8c0-4.4,3.5-7.9,7.9-7.9c4.1,0,7.8,3.2,7.9,7.8c0.1,4.4-3.6,8.1-8,8C25.8,56.7,22.6,52.8,22.7,48.8
			z M30.5,54c2.9,0.1,5.2-2.2,5.4-5.1c0.1-2.7-2.2-5.2-4.9-5.3c-2.9-0.1-5.4,2-5.6,5C25.2,51.5,27.6,54,30.5,54z"/>
		<path class="st81" d="M37,26.2c0,4.2-3.4,7.5-7.5,7.5c-4.2,0-7.5-3.4-7.5-7.5c0-4.2,3.4-7.5,7.6-7.5C33.7,18.7,37,22.1,37,26.2z
			 M34.3,26.2c0-2.6-2.1-4.8-4.7-4.8c-2.7,0-4.9,2.1-4.8,4.8c0,2.7,2.2,4.8,4.8,4.8C32.2,31,34.3,28.8,34.3,26.2z"/>
		<path class="st36" d="M79.9,63.7c0.1,3.7-3,7.2-7.2,7.1c-3.9,0-7.1-3.3-7.1-7.3c0-3.9,3.3-7.1,7.3-7.1
			C76.7,56.6,80,59.8,79.9,63.7z M72.7,68.2c2.4,0,4.4-1.8,4.5-4.3c0.1-2.6-1.8-4.6-4.5-4.6c-2.4,0-4.5,2-4.5,4.5
			C68.3,66.1,70.3,68.1,72.7,68.2z"/>
		<path class="st81" d="M40,29.4c0-3,2.3-6.1,6.2-6.1c3.3,0,6,2.7,6,6.1c0,3.3-2.8,6.1-6.2,6.1C42.8,35.6,40,32.8,40,29.4z
			 M49.5,29.5c0-1.8-1.2-3.4-3.3-3.5c-2-0.1-3.5,1.3-3.6,3.3c-0.1,1.8,1.3,3.4,3.4,3.5C48,32.9,49.5,31.4,49.5,29.5z"/>
		<path class="st36" d="M74.1,46.5c0,3.1-2.4,5.4-5.5,5.4c-2.9,0-5.3-2.5-5.3-5.5c0-3,2.5-5.4,5.5-5.3
			C71.7,41.1,74.1,43.5,74.1,46.5z M71.4,46.5c0-1.5-1.2-2.7-2.7-2.7c-1.5,0-2.7,1.2-2.7,2.7c0,1.5,1.2,2.7,2.7,2.7
			C70.2,49.2,71.4,48,71.4,46.5z"/>
		<path class="st98" d="M60.8,40.8c0,2.6-2.1,4.7-4.8,4.7c-2.6,0-4.7-2.1-4.7-4.7c0-2.6,2.1-4.8,4.8-4.8
			C58.6,36,60.8,38.2,60.8,40.8z M58.1,40.8c0-1.1-1-2.1-2.1-2c-1.1,0-2,1-2,2.1c0,1.1,1,2.1,2.1,2.1C57.1,42.8,58.1,41.9,58.1,40.8
			z"/>
		<path class="st54" d="M46.5,42.2c0,2.3-1.9,4.2-4.2,4.2c-2.3,0-4.2-1.9-4.2-4.2c0-2.3,1.9-4.2,4.2-4.2
			C44.6,38,46.5,39.9,46.5,42.2z M40.8,42.2c0,0.8,0.6,1.5,1.5,1.5c0.8,0,1.5-0.7,1.5-1.5c0-0.8-0.7-1.5-1.5-1.5
			C41.6,40.7,40.9,41.4,40.8,42.2z"/>
	</g>
</g>
<g id="Layer_2">
</g>
</svg>
