<svg width="100" height="100" viewBox="0 0 100 100" fill="none" xmlns="http://www.w3.org/2000/svg">
<path d="M1.6458 28.3784C23.3302 33.1532 43.4657 35.7658 63.1172 36.2163L56.2441 43.4235L52.4686 47.3875L51.5006 47.1172C50.4357 46.8469 49.2741 46.5766 48.2092 46.3064C47.6284 46.1262 47.0475 46.0361 46.5635 45.8559C45.1114 45.4956 43.6594 45.1352 42.2073 44.7748C40.0776 44.3244 37.851 43.964 35.7213 43.6037C33.882 43.4235 31.9459 43.2433 30.4938 43.1532C28.8481 43.0631 27.2024 42.973 25.5567 42.973C25.3631 42.973 25.2663 42.973 25.0727 42.973C19.6516 43.0631 15.1018 43.7839 10.8423 45.2253C10.5519 45.3154 10.3583 45.4055 10.0679 45.4956L9.77746 45.5857L9.48704 45.6757C7.84135 41.982 6.09885 38.2884 4.54997 34.6848C3.58191 32.6127 2.61386 30.5406 1.6458 28.3784ZM8.90621 37.8379C11.1327 37.8379 12.5848 36.0361 12.5848 34.4145C12.5848 32.5226 10.9391 30.9911 8.90621 30.9911C7.93815 30.9911 6.8733 31.3514 6.19566 32.0721C5.51802 32.7028 5.1308 33.5136 5.1308 34.4145C5.2276 36.3965 6.77649 37.8379 8.90621 37.8379ZM17.2315 39.6397C19.1676 39.6397 20.8133 38.1082 20.8133 36.2163C20.8133 35.3154 20.4261 34.4145 19.7484 33.7839C19.0708 33.1532 18.1027 32.7929 17.1347 32.7929C16.1666 32.7929 15.1986 33.1532 14.4241 33.8739C13.7465 34.5046 13.3593 35.3154 13.4561 36.2163C13.5529 38.1983 14.9081 39.5496 17.1347 39.6397C17.1347 39.6397 17.1347 39.6397 17.2315 39.6397ZM25.3631 40.8109C26.3312 40.8109 27.2992 40.4505 28.0737 39.7298C28.7513 39.0992 29.1385 38.1983 29.0417 37.3875C28.9449 35.4055 27.4928 34.0541 25.4599 34.0541H25.3631C25.2663 34.0541 25.2663 34.0541 25.2663 34.0541C24.2983 34.0541 23.427 34.4145 22.8462 35.0451C22.1686 35.6757 21.7813 36.5766 21.7813 37.4775C21.7813 39.3694 23.3302 40.8109 25.3631 40.8109ZM43.2721 39.4595H41.4328H38.8191H33.5916H33.4948H33.398C33.2044 39.4595 33.1076 39.4595 32.914 39.4595C32.0427 39.5496 31.4619 40.1802 31.4619 40.9911C31.4619 41.8019 31.9459 42.3424 32.8171 42.5226C33.1076 42.6127 33.3012 42.6127 33.4948 42.6127H33.5916H33.6884C40.4648 42.6127 47.2412 42.6127 53.9207 42.6127H54.2111H54.5016C54.6952 42.6127 54.9856 42.6127 55.276 42.6127C56.1472 42.5226 56.8249 41.8019 56.8249 41.0811C56.8249 40.2703 56.1473 39.6397 55.3728 39.5496C55.0824 39.5496 54.792 39.5496 54.5016 39.5496H54.4048H54.3079H47.4348H45.7891H44.1434L43.2721 39.4595ZM0.290527 27.2974C3.2915 33.8739 6.09885 40.2703 9.09982 46.7568C9.48704 46.5766 9.87426 46.4866 10.1647 46.3064C10.4551 46.2163 10.8423 46.0361 11.1327 45.946C15.5858 44.4145 20.3292 43.7839 25.0727 43.6938C25.2663 43.6938 25.3631 43.6938 25.5567 43.6938C27.2024 43.6938 28.8481 43.7839 30.397 43.8739C32.1395 43.964 33.7852 44.1442 35.5277 44.4145C37.6574 44.7748 39.7871 45.1352 41.9169 45.5857C43.9498 46.0361 45.9827 46.5766 47.9188 47.0271C49.4677 47.3875 51.0166 47.8379 52.6623 48.1983C56.6313 43.964 60.6971 39.8199 64.7629 35.4956C42.9817 35.1352 21.5877 32.0721 0.290527 27.2974ZM8.90621 37.1172C7.16371 37.1172 6.00205 35.8559 6.00205 34.4145C6.00205 32.973 7.26052 31.7118 8.90621 31.7118C10.4551 31.7118 11.8104 32.883 11.8104 34.4145C11.8104 35.6757 10.6487 37.1172 8.90621 37.1172ZM17.2315 38.8289H17.1347C15.3922 38.7388 14.3273 37.6577 14.2305 36.1262C14.2305 34.6847 15.489 33.5136 17.1347 33.5136C18.7804 33.5136 20.0388 34.6848 19.942 36.2163C19.942 37.6577 18.7804 38.8289 17.2315 38.8289ZM25.3631 40.0902C23.7174 40.0902 22.5558 38.919 22.459 37.3875C22.459 36.2163 23.427 34.7748 25.1695 34.7748H25.2663H25.3631C27.1056 34.7748 28.1705 35.946 28.1705 37.3875C28.2673 38.8289 26.912 40.0902 25.3631 40.0902ZM44.0466 40.2703C45.2082 40.2703 46.2731 40.2703 47.4348 40.2703C49.7581 40.2703 51.9846 40.2703 54.3079 40.2703H54.4048C54.5984 40.2703 54.8888 40.2703 55.0824 40.2703C55.5664 40.3604 55.8568 40.7208 55.8568 41.0811C55.8568 41.4415 55.4696 41.892 55.0824 41.892C54.8888 41.892 54.5984 41.892 54.4048 41.892C54.2111 41.892 54.0175 41.892 53.8239 41.892C47.0475 41.892 40.2712 41.892 33.5916 41.892C33.4948 41.892 33.398 41.892 33.398 41.892C33.2044 41.892 33.0108 41.892 32.914 41.892C32.4299 41.8019 32.2363 41.5316 32.2363 41.0811C32.2363 40.6307 32.5267 40.3604 33.0108 40.2703C33.1076 40.2703 33.2044 40.2703 33.398 40.2703C33.4948 40.2703 33.5916 40.2703 33.6884 40.2703C35.4309 40.2703 37.1734 40.2703 38.9159 40.2703C40.6584 40.2703 42.3041 40.2703 44.0466 40.2703Z" fill="#060139"/>
<path d="M52.8558 11.9822C52.8558 16.4867 52.8558 20.9011 52.8558 25.4056C52.8558 25.8561 52.9527 26.3966 53.4367 26.8471C53.9207 27.2074 54.5015 27.2975 54.9856 27.2975C57.9865 27.2975 61.0843 27.2975 64.0853 27.2975H65.6342H67.1831H69.8936H71.7329C69.8936 29.1894 68.0543 31.1714 66.215 33.0633L66.1182 33.1534C63.8917 33.1534 61.3747 33.0633 58.3738 32.9732C57.5993 32.9732 56.8249 32.8831 56.0504 32.8831H55.276C54.792 32.8831 54.3079 32.793 53.8239 32.793C52.5654 32.7029 51.2102 32.7029 49.9517 32.6128C48.8868 32.5227 47.822 32.4326 46.8539 32.3426C46.3699 32.2525 45.7891 32.2525 45.305 32.1624C44.821 32.0723 44.2402 32.0723 43.7561 31.9822C42.7881 31.8921 41.7232 31.802 40.6584 31.7119C38.0446 31.4417 35.4309 31.0813 32.9139 30.7209L31.8491 30.5408C30.4938 30.3606 29.2353 30.1804 27.8801 30.0002H27.6864C27.5896 30.0002 27.5896 30.0002 27.4928 30.0002C27.4928 29.9101 27.4928 29.9101 27.4928 29.82C27.4928 28.1083 27.4928 26.4867 27.4928 24.775V22.2525V19.0993C27.4928 16.757 27.4928 14.4146 27.4928 12.1624V12.0723H52.8558M40.2711 26.3966C44.0466 26.3966 46.8539 23.784 46.9507 20.2705C47.0475 16.8471 44.1434 14.0543 40.4648 13.9642C40.368 13.9642 40.3679 13.9642 40.2711 13.9642C36.5925 13.9642 33.5916 16.757 33.5916 20.1804C33.6884 23.6939 36.5925 26.3966 40.2711 26.3966ZM53.6303 11.1714C44.6274 11.1714 35.7213 11.1714 26.7184 11.1714C26.7184 11.4417 26.6216 11.7119 26.6216 11.9822C26.6216 15.3155 26.6216 18.739 26.6216 22.0723C26.6216 24.5948 26.6216 27.1173 26.6216 29.6399C26.6216 29.9101 26.6216 30.0903 26.6216 30.3606C26.912 30.4507 27.2024 30.5408 27.4928 30.5408C28.8481 30.7209 30.3002 30.9011 31.6555 31.0813C34.6564 31.4417 37.5606 31.802 40.5616 32.1624C42.1105 32.3426 43.6593 32.4326 45.2082 32.6128C46.7571 32.793 48.4028 32.9732 49.9517 33.0633C51.6942 33.1534 53.5335 33.2435 55.276 33.3335C56.3408 33.4236 57.3089 33.4236 58.3738 33.5137C60.9875 33.6038 63.5044 33.6939 66.1182 33.6939C66.3118 33.6939 66.6022 33.6038 66.7958 33.4236C68.9255 31.2615 70.9585 29.0092 73.0882 26.8471C73.185 26.757 73.2818 26.5768 73.3786 26.3966C72.1201 26.3966 70.9585 26.3966 69.8936 26.3966C69.0224 26.3966 68.0543 26.3966 67.1831 26.3966C66.215 26.3966 65.1501 26.3966 64.1821 26.3966C61.1811 26.3966 58.0833 26.3966 55.0824 26.3966C54.1143 26.3966 53.7271 26.1263 53.7271 25.3155C53.7271 20.9011 53.7271 16.3966 53.7271 11.9822C53.7271 11.7119 53.6303 11.5317 53.6303 11.1714ZM40.2711 25.6759C36.6893 25.6759 34.4628 23.0633 34.366 20.1804C34.366 17.2074 37.0766 14.6849 40.2711 14.6849C40.3679 14.6849 40.368 14.6849 40.4648 14.6849C43.6593 14.775 46.2731 17.2074 46.1763 20.2705C46.1763 23.2435 43.8529 25.6759 40.2711 25.6759Z" fill="#060139"/>
<path d="M86.544 35.5857C86.06 36.3064 85.6728 37.0272 85.1888 37.7479L85.092 37.9281C84.8015 38.3785 84.5111 38.829 84.3175 39.2794C84.2207 39.3695 84.2207 39.3695 84.0271 39.3695C83.1559 39.3695 82.2846 39.3695 81.4134 39.3695H79.5741H77.8316H74.7338H65.3437H65.2469H65.15C64.9564 39.3695 64.8596 39.3695 64.5692 39.3695C65.5373 38.2884 66.5053 37.2974 67.4734 36.2163C67.4734 36.2163 67.4734 36.1263 67.667 36.1263H68.0542C68.5382 36.1263 69.0223 36.1263 69.5063 36.1263C69.9903 36.1263 70.4743 36.1263 70.9584 36.1263C71.5392 36.1263 72.0232 36.1263 72.6041 36.1263C74.3466 36.1263 76.1859 36.0362 77.9284 35.9461C80.1549 35.856 82.3814 35.6758 84.5111 35.4956C85.2856 35.6758 85.9632 35.6758 86.544 35.5857ZM63.2139 40.9911C63.2139 41.8019 63.698 42.4326 64.5692 42.6127C64.7628 42.6127 64.9564 42.6127 65.15 42.6127H65.3437H65.4405H73.9593H78.2188H82.2846L81.0261 44.6848C79.8645 46.6668 78.606 48.6488 77.4443 50.6308C77.4443 50.6308 77.4443 50.6308 77.3475 50.6308C76.8635 50.6308 76.4763 50.6308 75.9923 50.6308C75.121 50.6308 74.1529 50.6308 73.2817 50.5407C71.4424 50.3605 69.3127 50.1803 66.9893 49.91C63.9884 49.5497 60.8906 49.0992 57.212 48.2884C56.9216 48.1983 56.6312 48.1983 56.3408 48.1082C56.9216 47.4776 57.5024 46.9371 57.9864 46.3064C58.8577 45.4055 59.6321 44.5947 60.5034 43.6938C61.3746 42.9731 62.3427 41.9821 63.2139 40.9911ZM87.9961 34.7749C87.7057 34.7749 87.5121 34.7749 87.4153 34.7749C84.3175 34.9551 81.1229 35.2254 78.0252 35.4055C75.7018 35.4956 73.3785 35.4956 71.0552 35.5857C70.5712 35.5857 70.0871 35.5857 69.6031 35.5857C69.0223 35.5857 68.3446 35.5857 67.7638 35.5857C67.4734 35.5857 67.183 35.6758 66.9893 35.856C65.7309 37.2073 64.3756 38.6488 63.1171 40.0001C61.181 41.9821 59.3417 43.9641 57.4056 45.9461C56.5344 46.847 55.7599 47.7479 54.8887 48.6488C55.6631 48.829 56.3408 48.919 57.0184 49.0992C60.3098 49.8199 63.6012 50.3605 66.8925 50.7209C69.0223 50.9911 71.0552 51.1713 73.1849 51.3515C74.5402 51.4416 75.8955 51.4416 77.2507 51.5317C77.2507 51.5317 77.2507 51.5317 77.3475 51.5317C77.6379 51.5317 77.9284 51.4416 78.122 51.1713C79.8645 48.2884 81.607 45.4055 83.3495 42.6127C83.4463 42.4326 83.5431 42.2524 83.6399 42.0722C83.1559 42.0722 82.8654 42.0722 82.4782 42.0722C79.6709 42.0722 76.7667 42.0722 73.9593 42.0722C71.152 42.0722 68.2478 42.0722 65.4405 42.0722C65.3437 42.0722 65.2469 42.0722 65.15 42.0722C65.0532 42.0722 64.8596 42.0722 64.7628 42.0722C64.2788 41.9821 63.9884 41.6218 64.0852 41.1713C64.0852 40.7209 64.3756 40.4506 64.8596 40.3605C64.9564 40.3605 65.15 40.3605 65.2469 40.3605C65.3437 40.3605 65.4405 40.3605 65.5373 40.3605C69.6999 40.3605 73.8625 40.3605 78.0252 40.3605C79.1868 40.3605 80.3485 40.3605 81.5102 40.3605C82.3814 40.3605 83.2527 40.3605 84.0271 40.3605C84.5111 40.3605 84.8015 40.1803 84.9952 39.8199C85.2856 39.2794 85.576 38.7389 85.8664 38.2884C86.6408 37.0272 87.3185 35.9461 87.9961 34.7749Z" fill="#060139"/>
<path d="M26.3313 46.2163C26.7185 46.2163 27.1057 46.2163 27.4929 46.2163C30.2035 46.3064 33.1077 46.5767 36.2054 47.0271C40.6585 47.6578 45.0147 48.8289 49.2742 49.91L49.9518 50.0902L45.886 54.4145L45.2083 54.2343C44.3371 54.0542 43.5626 53.874 42.7882 53.6938C40.3681 53.1533 37.7543 52.7028 34.8502 52.2524C33.8821 52.0722 32.9141 51.9821 31.8492 51.892C32.0428 51.7118 32.1396 51.4416 32.1396 51.1713C32.2364 50.3605 31.5588 49.5497 30.6875 49.3695C30.5907 49.3695 30.4939 49.3695 30.3003 49.3695L25.2664 49.1893H24.492V49.2794H24.3952C24.2016 49.2794 24.008 49.2794 23.8143 49.2794H23.3303C22.6527 49.2794 21.975 49.2794 21.2974 49.3695C20.3293 49.4596 19.7485 50.1803 19.8453 51.0812C19.8453 51.4416 19.9421 51.7118 20.1357 51.892C16.2635 52.2524 12.7785 53.1533 9.58394 54.4145C7.84145 55.1352 6.29256 55.856 4.93728 56.7569V55.7659C4.93728 54.5947 4.93728 53.5136 4.93728 52.3425C4.93728 52.2524 4.93728 52.1623 5.03409 52.0722C6.48617 50.8109 8.42228 49.7298 10.8424 48.7388C13.0689 47.8379 15.5859 47.2073 18.1996 46.7569C19.5549 46.5767 20.9102 46.3965 22.4591 46.3064C24.008 46.3064 25.1696 46.2163 26.3313 46.2163ZM26.3313 45.4956C25.0728 45.4956 23.7175 45.5857 22.4591 45.5857C21.007 45.6758 19.5549 45.856 18.1028 46.0361C15.4891 46.3965 12.9721 47.1172 10.552 48.1082C8.32547 49.0091 6.29256 50.0902 4.55006 51.6217C4.25965 51.892 4.16284 52.0722 4.16284 52.4325C4.16284 54.2343 4.16284 55.9461 4.16284 57.7479C4.16284 57.8379 4.16284 58.0181 4.25965 58.1983C4.45326 58.1082 4.64687 58.0181 4.74367 57.928C6.29256 56.7569 8.03506 55.856 9.87436 55.1352C14.2306 53.4235 18.7805 52.6127 23.5239 52.4325C24.2984 52.4325 25.0728 52.4325 25.8473 52.4325C28.8482 52.4325 31.8492 52.6127 34.7534 53.0632C37.3671 53.4235 39.9808 53.874 42.5946 54.5046C43.7563 54.7749 44.9179 55.0452 46.1764 55.3154C47.9189 53.5136 49.5646 51.7118 51.4039 49.8199C51.1135 49.7298 50.9199 49.6397 50.7262 49.6397C45.9828 48.3785 41.2393 47.1172 36.3022 46.3965C33.3981 45.9461 30.3971 45.6758 27.4929 45.5857C27.1057 45.4956 26.7185 45.4956 26.3313 45.4956ZM25.2664 50.0001C26.9121 50.0001 28.6546 50.0902 30.3003 50.0902C30.3971 50.0902 30.4939 50.0902 30.5907 50.0902C31.1716 50.1803 31.462 50.6307 31.462 51.0812C31.462 51.5316 31.0747 51.8019 30.4939 51.8019C30.0099 51.8019 29.4291 51.7118 28.945 51.7118C27.5898 51.7118 26.2345 51.7118 24.7824 51.7118C24.1048 51.7118 23.4271 51.7118 22.7495 51.7118C22.6527 51.7118 22.4591 51.7118 22.3623 51.7118C22.1686 51.7118 21.975 51.7118 21.7814 51.7118C21.6846 51.7118 21.6846 51.7118 21.5878 51.7118C21.007 51.7118 20.7166 51.4416 20.7166 50.901C20.7166 50.3605 20.9102 50.0001 21.491 50.0001C22.2655 49.91 23.1367 49.91 23.9111 49.91C24.1048 49.91 24.2984 49.91 24.492 49.91C24.6856 50.0001 24.976 50.0001 25.2664 50.0001Z" fill="#060139"/>
<path d="M53.7271 50.991C54.0176 51.0811 54.308 51.0811 54.6952 51.1712C55.7601 51.3513 56.7281 51.6216 57.6962 51.8018L58.4706 51.8919C60.9875 52.3423 63.5045 52.7928 66.0214 53.1531C68.9256 53.5135 71.2489 53.7838 73.3786 53.8739C74.3467 53.8739 75.3147 53.964 76.4764 53.964C77.8317 53.964 79.187 53.964 80.5422 53.8739H81.6071C81.8007 53.8739 81.9943 53.8739 82.1879 53.8739C82.0911 53.964 82.0911 54.054 81.9943 54.1441C81.8007 54.5045 81.7039 55.045 81.9943 55.4955C82.2847 56.1261 82.8656 56.4865 83.5432 56.4865C83.64 56.4865 83.7368 56.4865 83.7368 56.4865C86.4474 56.2162 88.6739 55.7658 90.8036 55.1351V57.6577C90.4164 57.8378 90.0292 57.9279 89.7388 58.018C87.7058 58.5586 85.4793 58.9189 82.8656 59.1892C81.0263 59.3694 79.3806 59.4595 77.7349 59.4595C76.9604 59.4595 76.2828 59.4595 75.5084 59.3694C73.185 59.2793 70.5713 59.0991 67.5703 58.7387C64.3757 58.4685 60.9875 57.8378 56.7281 56.9369C54.9856 56.5766 53.1463 56.1261 51.4038 55.6757C50.823 55.4955 50.2421 55.4054 49.7581 55.2252L51.5974 53.3333L53.7271 50.991ZM53.4367 50.1802C51.6942 51.982 49.9517 53.7838 48.2092 55.6757C48.4996 55.7658 48.7901 55.8558 48.9837 55.9459C51.5006 56.5766 54.0176 57.2072 56.5345 57.7477C60.1163 58.5586 63.7949 59.1892 67.4735 59.5495C70.0873 59.8198 72.7978 60 75.5084 60.1802C76.2828 60.1802 76.9604 60.2703 77.7349 60.2703C79.4774 60.2703 81.2199 60.1802 82.9624 60C85.3825 59.8198 87.7058 59.4595 89.9324 58.8288C90.5132 58.6486 91.094 58.4685 91.6749 58.1982C91.6749 56.8468 91.6749 55.4955 91.6749 54.1441C91.2876 54.2342 90.9972 54.3243 90.7068 54.4144C88.4803 55.1351 86.0601 55.4955 83.7368 55.7658C83.64 55.7658 83.64 55.7658 83.64 55.7658C83.2528 55.7658 82.9624 55.5856 82.7688 55.2252C82.4783 54.5946 82.8656 54.1441 83.7368 54.054C85.6729 53.6937 87.609 53.4234 89.5451 52.973C90.3196 52.7928 90.9972 52.5225 91.7717 52.2522C91.7717 51.982 91.7717 51.7117 91.6749 51.4414C91.3844 51.5315 91.1908 51.5315 90.9972 51.6216C90.2228 51.8018 89.4483 52.0721 88.6739 52.2522C86.3506 52.7027 84.0272 53.1531 81.7039 53.1531C79.8646 53.1531 78.1221 53.1531 76.4764 53.1531C75.4116 53.1531 74.4435 53.1531 73.3786 53.0631C70.9585 52.973 68.5384 52.7027 66.1182 52.3423C63.3109 51.982 60.6003 51.4414 57.793 50.991C56.3409 50.8108 54.9856 50.5405 53.4367 50.1802Z" fill="#060139"/>
<path d="M44.7241 77.3875C44.7241 72.883 44.7241 68.3785 44.7241 63.874C45.305 63.6938 45.8858 63.874 46.4666 63.9641C48.0155 64.4145 49.1772 65.4055 49.9516 66.6668C50.6292 67.7478 51.1133 68.8289 51.6941 69.91C52.5654 71.5316 53.9206 72.6127 55.8567 72.883C56.728 73.0632 57.5992 72.883 58.4705 72.883C58.6641 72.883 58.7609 72.883 58.9545 72.883C57.5024 74.865 55.6631 76.3965 53.243 77.2974C50.4356 78.5587 47.6283 78.3785 44.7241 77.3875Z" fill="#060139"/>
<path d="M99.7097 2.07227C99.7097 4.77497 99.7097 7.38758 99.7097 10.0903C96.3216 12.3425 90.4164 12.4326 86.157 10.3606C86.157 7.83803 86.157 5.31551 86.157 2.79299C87.125 3.06326 88.0931 3.42362 89.0611 3.6038C91.2877 4.05425 93.611 3.87407 95.7407 3.24344C96.8056 2.97317 97.9672 2.61281 99.0321 2.25245C99.3225 2.16236 99.4193 2.16236 99.7097 2.07227Z" fill="#36B24A"/>
<path d="M73.2818 14.5044V23.9639H67.9575C67.8607 22.072 67.8607 16.3963 67.9575 14.5044H73.2818ZM74.0562 13.7837C71.7329 13.7837 69.4096 13.7837 67.183 13.7837C66.9894 14.5044 66.9894 24.2341 67.183 24.6846C69.4096 24.6846 71.7329 24.6846 74.0562 24.6846C74.0562 20.9909 74.0562 17.3873 74.0562 13.7837Z" fill="#060139"/>
<path d="M44.337 87.4774C43.2721 90.3603 43.2721 93.153 44.5306 95.9458C43.3689 96.3062 42.2073 96.4864 40.9488 96.3963C38.335 96.126 36.2053 94.8648 34.366 93.153C33.882 92.7026 33.4948 92.3422 33.0107 91.8017C33.398 91.3512 33.7852 90.9909 34.1724 90.6305C35.4309 89.4594 36.883 88.3783 38.6255 87.7476C40.0775 87.2071 41.6264 86.9368 43.1753 87.2071C43.5625 87.2071 43.9498 87.3873 44.337 87.4774Z" fill="#060139"/>
<path d="M26.3311 74.3245C25.6535 74.5948 25.0727 74.6849 24.395 74.7749C21.6845 75.0452 19.3611 74.0542 17.2314 72.5227C16.3602 71.802 15.4889 70.9912 14.6177 70.2704C16.1666 68.4686 18.0059 67.1173 20.1356 66.2164C21.7813 65.4957 23.5238 65.4056 25.3631 65.7659C25.5567 65.7659 25.7503 65.856 25.8471 65.9461C25.8471 65.9461 25.9439 66.0362 26.0407 66.1263C25.6535 67.4777 25.2663 68.829 25.2663 70.2704C25.3631 71.5317 25.8471 72.8831 26.3311 74.3245Z" fill="#060139"/>
<path d="M82.7687 80.5407C81.5103 80.9911 80.3486 81.0812 79.0901 80.9911C76.2828 80.6308 74.1531 79.2794 72.217 77.4776C71.9265 77.2073 71.6361 76.9371 71.4425 76.6668C71.3457 76.5767 71.3457 76.4866 71.3457 76.3965C71.4425 76.3064 71.4425 76.2164 71.5393 76.1263C73.2818 74.3245 75.2179 72.7929 77.7349 72.0722C79.1869 71.6218 80.639 71.6218 82.1879 71.9821C82.3815 71.9821 82.4783 72.0722 82.6719 72.1623C81.4135 74.9551 81.5103 77.7479 82.7687 80.5407Z" fill="#060139"/>
<path d="M84.3177 33.2432C83.7369 33.3333 83.2528 33.3333 82.672 33.4234C82.672 33.1532 82.5752 32.8829 82.5752 32.7027C82.5752 22.2523 82.5752 11.8018 82.5752 1.35135C82.5752 1.17117 82.5752 0.990991 82.5752 0.810811C82.672 0.27027 83.0592 0 83.5432 0C84.0273 0 84.3177 0.36036 84.4145 0.810811C84.4145 0.990991 84.4145 1.08108 84.4145 1.26126C84.4145 11.6216 84.4145 21.982 84.4145 32.3423C84.3177 32.6126 84.3177 32.8829 84.3177 33.2432Z" fill="#36B24A"/>
<path d="M42.7881 76.6666C41.9168 76.6666 41.0456 76.6666 40.1743 76.6666C39.8839 72.4323 39.8839 68.2882 39.7871 63.9639C40.852 63.9639 41.82 63.9639 42.7881 63.9639C42.7881 68.1981 42.7881 72.4323 42.7881 76.6666Z" fill="#060139"/>
<path d="M76.4765 27.207V32.8827C74.8308 32.9728 73.1851 32.9728 71.6362 32.9728C71.3458 32.9728 71.0554 32.9728 70.8618 32.9728L74.2499 29.3692L76.3797 27.117H76.4765M77.2509 26.4863C76.7669 26.4863 76.3797 26.4863 75.9924 26.4863C73.7659 28.8287 71.4426 31.2611 69.2161 33.6034C69.2161 33.6935 69.3129 33.6935 69.3129 33.7836C71.9266 33.6935 74.6372 33.8737 77.2509 33.6034C77.2509 31.171 77.2509 28.9188 77.2509 26.4863Z" fill="#060139"/>
<path d="M63.6982 16.4866C63.9886 16.4866 64.1822 16.4866 64.3758 16.4866V23.9641H62.7301C62.7301 21.6217 62.6333 19.2794 62.6333 17.0271C62.6333 16.847 62.6333 16.7569 62.6333 16.5767C63.0205 16.4866 63.311 16.4866 63.6982 16.4866ZM63.6982 15.6758C63.0206 15.6758 62.3429 15.7659 61.9557 15.856C61.9557 16.2163 61.8589 16.4866 61.8589 16.847C61.8589 19.1893 61.8589 21.5316 61.9557 23.9641C61.9557 24.1443 62.0525 24.3244 62.0525 24.5947C63.1174 24.5947 64.0854 24.5947 65.1503 24.5947C65.1503 21.6217 65.1503 18.6488 65.1503 15.7659C64.8599 15.7659 64.279 15.6758 63.6982 15.6758Z" fill="#060139"/>
<path d="M14.2305 68.5584C13.2625 69.4593 12.8753 70.2701 13.8433 71.3512C12.2944 72.2521 10.8424 73.153 9.29347 73.9638C9.19666 73.9638 9.19666 73.8737 9.09985 73.8737C9.19666 73.4233 9.19666 72.9728 9.48708 72.5224C9.77749 71.8918 10.1647 71.2611 10.5519 70.7206C11.036 70.0899 11.036 69.6395 10.4551 69.0089C9.68069 68.1981 9.19666 67.2071 9.09985 66.126C9.09985 66.0359 9.09985 65.9458 9.19666 65.7656C11.036 66.7566 12.5848 67.6575 14.2305 68.5584Z" fill="#060139"/>
<path d="M27.4928 87.3872C29.1385 88.2881 30.6874 89.189 32.3331 90.18C31.5586 91.0809 30.9778 91.8917 32.0427 92.9728C30.4938 93.8737 29.0417 94.6845 27.396 95.6755C27.396 95.4052 27.396 95.225 27.396 95.135C27.5896 94.2341 27.9768 93.3332 28.6545 92.6124C29.3321 91.8016 29.3321 91.5313 28.6545 90.6304C27.9768 89.8196 27.5896 89.0088 27.396 88.0178C27.4928 87.7476 27.4928 87.6575 27.4928 87.3872Z" fill="#060139"/>
<path d="M28.0738 73.6037C27.0089 71.2613 26.9121 68.919 27.977 66.5767C29.7195 67.4776 31.1716 68.7388 32.43 70.0902C31.1716 71.4415 29.8163 72.6127 28.0738 73.6037ZM29.4291 68.7388C28.8482 68.7388 28.461 69.0992 28.3642 69.6397C28.3642 70.0902 28.7514 70.5406 29.2355 70.5406C29.7195 70.5406 30.2035 70.1803 30.3003 69.7298C30.3003 69.2794 29.9131 68.7388 29.4291 68.7388Z" fill="#060139"/>
<path d="M70.1841 77.6576C68.732 78.4684 67.28 79.2792 65.7311 80.1801C65.7311 79.2792 65.9247 78.6486 66.3119 78.018C66.5055 77.6576 66.8927 77.2972 67.0864 76.9369C67.5704 76.3063 67.5704 76.036 67.0864 75.4954C66.4087 74.6846 65.9247 73.8738 65.7311 72.8828C65.7311 72.7027 65.7311 72.5225 65.6343 72.1621C67.28 73.063 68.8288 73.9639 70.3777 74.8648C69.5065 76.1261 69.3129 76.1261 70.1841 77.6576Z" fill="#060139"/>
<path d="M46.1763 88.1982C47.822 89.0991 49.274 90.2703 50.5325 91.6217C49.7581 92.7928 47.4347 94.6847 46.3699 95.0451C45.2082 93.6937 45.1114 89.6397 46.1763 88.1982ZM48.2092 91.0811C48.2092 90.5406 47.7251 90.1802 47.1443 90.2703C46.5635 90.2703 46.2731 90.6307 46.2731 91.1712C46.2731 91.7118 46.6603 92.0721 47.2411 92.0721C47.8219 92.0721 48.306 91.6217 48.2092 91.0811Z" fill="#060139"/>
<path d="M84.5113 79.7297C83.4464 77.8378 83.4464 74.054 84.5113 72.8828C86.157 73.6936 87.5123 74.9549 88.7707 76.2161C88.3835 77.117 85.7698 79.2792 84.5113 79.7297ZM86.641 75.7657C86.641 75.3152 86.157 74.8648 85.673 74.8648C85.1889 74.8648 84.7049 75.3152 84.7049 75.7657C84.7049 76.2161 85.1889 76.6666 85.673 76.6666C86.157 76.6666 86.641 76.2161 86.641 75.7657Z" fill="#060139"/>
<path d="M47.0475 56.7569C46.4667 57.4777 45.9827 58.0182 45.4018 58.6488C44.5306 59.6398 43.6593 60.6308 42.7881 61.6218C42.4008 62.0723 41.9168 62.3425 41.2392 62.2524C40.852 62.2524 40.5615 62.2524 39.9807 62.2524C40.1743 61.9822 40.1743 61.802 40.2711 61.7119C41.7232 60.0002 43.2721 58.3786 44.7242 56.6668C45.0146 56.3966 45.2082 56.3065 45.5954 56.3966C46.1763 56.5768 46.5635 56.6668 47.0475 56.7569Z" fill="#060139"/>
<path d="M73.9595 68.1079C75.4116 68.9187 76.7668 69.6394 78.2189 70.5403C77.1541 70.9007 76.186 71.2611 75.2179 71.5313C74.5403 70.5403 73.9595 69.5494 73.9595 68.1079Z" fill="#060139"/>
<path d="M73.9595 84.6847C74.0563 83.3333 74.5403 82.2522 75.3147 81.2612C76.2828 81.6216 77.1541 81.8919 78.2189 82.2522C76.7668 83.063 75.4116 83.7838 73.9595 84.6847Z" fill="#060139"/>
<path d="M35.7212 83.5137C37.0765 84.3245 38.4317 85.0452 39.8838 85.856C38.9158 86.2164 37.9477 86.5767 37.0765 86.847C36.3988 86.2164 35.7212 84.7749 35.7212 83.5137Z" fill="#060139"/>
<path d="M35.7212 99.9998C35.7212 98.6485 36.2052 97.6575 36.9797 96.6665C37.9477 97.0269 38.819 97.2971 39.787 97.6575C38.5285 98.3782 37.1733 99.189 35.7212 99.9998Z" fill="#060139"/>
<path d="M17.7156 61.9819C18.9741 62.7027 20.2325 63.4234 21.6846 64.2342C20.6197 64.5945 19.7485 64.8648 18.7804 65.1351C18.1028 64.2342 17.6188 63.2432 17.522 62.072C17.6188 61.9819 17.6188 61.9819 17.7156 61.9819Z" fill="#060139"/>
<path d="M18.7804 75.1353C19.7485 75.4956 20.6197 75.7659 21.5878 76.1262C20.2325 76.9371 18.9741 77.5677 17.522 78.3785C17.6188 77.0271 18.1028 76.0362 18.7804 75.1353Z" fill="#060139"/>
<path d="M8.90617 35.3152C8.32534 35.3152 7.84131 34.9549 7.84131 34.4143C7.84131 33.8738 8.32534 33.4233 8.90617 33.4233C9.487 33.4233 9.87422 33.8738 9.87422 34.4143C9.87422 34.9549 9.487 35.3152 8.90617 35.3152Z" fill="#FAAF40"/>
<path d="M17.1347 37.117C16.5539 37.117 16.0699 36.6665 16.1667 36.126C16.1667 35.5855 16.6507 35.2251 17.2316 35.2251C17.8124 35.2251 18.1996 35.6756 18.1996 36.2161C18.1028 36.6665 17.6188 37.117 17.1347 37.117Z" fill="#FAAF40"/>
<path d="M26.3313 37.3872C26.3313 37.9278 25.944 38.2881 25.3632 38.2881C24.7824 38.2881 24.2983 37.9278 24.2983 37.3872C24.2983 36.8467 24.7824 36.4863 25.3632 36.4863C25.944 36.4863 26.3313 36.8467 26.3313 37.3872Z" fill="#FAAF40"/>
<path d="M36.3022 20.18C36.3022 18.108 38.0447 16.4863 40.2713 16.4863C42.4978 16.4863 44.3371 18.108 44.3371 20.18C44.3371 22.3422 42.5946 23.9638 40.2713 23.9638C38.0447 23.8737 36.3022 22.2521 36.3022 20.18Z" stroke="#EE3553" stroke-width="0.8203" stroke-miterlimit="10"/>
</svg>
