<?xml version="1.0" encoding="utf-8"?>
<!-- Generator: Adobe Illustrator 27.0.0, SVG Export Plug-In . SVG Version: 6.00 Build 0)  -->
<svg version="1.1" xmlns="http://www.w3.org/2000/svg" xmlns:xlink="http://www.w3.org/1999/xlink" x="0px" y="0px"
	 viewBox="0 0 100 100" style="enable-background:new 0 0 100 100;" xml:space="preserve">
<style type="text/css">
	.st0{fill:none;}
	.st1{opacity:0.9;fill:#1A0B0B;}
	.st2{fill:#F5F8F9;}
	.st3{fill:#FFFFFF;}
	.st4{fill:none;stroke:#343C45;stroke-width:0.2761;stroke-miterlimit:10;}
	.st5{fill:#012169;}
	.st6{opacity:0.4;fill:#333333;}
	.st7{fill:none;stroke:#C5C6C8;stroke-width:0.5039;stroke-miterlimit:10;}
	.st8{fill:#FAE8E8;}
	.st9{fill:none;stroke:#EA6061;stroke-width:0.9098;stroke-linecap:round;stroke-linejoin:round;stroke-miterlimit:10;}
	.st10{fill:#EA6061;stroke:#EA6061;stroke-width:0.25;stroke-miterlimit:10;}
	.st11{fill:#E3F6EB;}
	.st12{fill:none;stroke:#51AE3B;stroke-width:0.9098;stroke-linecap:round;stroke-linejoin:round;stroke-miterlimit:10;}
	.st13{fill:#20201F;}
	.st14{fill:#EFF2F8;}
	.st15{fill:#2A367E;}
	.st16{fill:#EA6061;}
	.st17{fill:none;stroke:#343C45;stroke-width:0.2426;stroke-miterlimit:10;}
	.st18{fill:none;stroke:#000000;stroke-width:0.5;stroke-miterlimit:10;}
	.st19{fill:#1A0B0B;}
	.st20{fill:none;stroke:#343C45;stroke-width:0.75;stroke-miterlimit:10;}
	.st21{fill:none;stroke:#333333;stroke-linecap:round;stroke-miterlimit:10;}
	.st22{opacity:0.5;}
	.st23{fill:none;stroke:#343C45;stroke-width:0.25;stroke-miterlimit:10;}
	.st24{opacity:0.95;}
	.st25{fill:url(#SVGID_1_);}
	.st26{fill:url(#SVGID_00000070116964477985913340000006409038846656966843_);}
	.st27{fill:#032D77;}
	.st28{opacity:0;fill:#032D77;}
	.st29{opacity:0.6;fill:#FFFFFF;}
	.st30{opacity:0.6;}
	.st31{fill:#EEF1F7;}
	.st32{fill:#333333;}
	.st33{fill:url(#SVGID_00000039129751369662626220000017460487196210864256_);}
	.st34{fill:url(#SVGID_00000031192747318606776630000014226154147792895905_);}
	.st35{fill:url(#SVGID_00000178184196360346213060000012400261022231839673_);}
	.st36{fill:#FAAF40;}
	.st37{fill:url(#SVGID_00000119827799324516647800000009630974460835087507_);}
	.st38{opacity:0.5;fill:url(#SVGID_00000039116493429003058220000001803394816466040473_);}
	.st39{fill:#E8E8E8;}
	.st40{fill:none;stroke:#333333;stroke-width:0.7865;stroke-linecap:round;stroke-miterlimit:10;}
	.st41{fill:url(#SVGID_00000169542812017212773980000013614306042782935444_);}
	.st42{fill:#0659ED;}
	.st43{fill:#02399B;}
	.st44{fill:url(#SVGID_00000129179356868106672150000013053617432018230179_);}
	.st45{fill:#7F00FF;}
	.st46{fill:#6900E2;}
	.st47{fill:#5200C6;}
	.st48{fill:#36B24A;}
	.st49{fill:#060139;}
	.st50{fill:none;stroke:#060139;stroke-width:1.8754;stroke-miterlimit:10;}
	.st51{display:none;fill:#37B34A;}
	.st52{display:none;fill-rule:evenodd;clip-rule:evenodd;fill:#37B34A;}
	.st53{fill-rule:evenodd;clip-rule:evenodd;fill:#37B34A;}
	.st54{fill:#37B34A;}
	.st55{fill:#08F3F9;}
	.st56{display:none;}
	.st57{display:inline;}
	.st58{fill:#BCBABB;}
	.st59{display:inline;fill:#2E1F24;}
	.st60{fill:url(#SVGID_00000107568158067619689340000007233728328522350513_);}
	.st61{fill:#FFFFFF;stroke:#919396;stroke-width:0.2269;stroke-miterlimit:10;}
	.st62{fill:#2A2A2A;}
	.st63{fill:url(#SVGID_00000041253213130395480530000001765829943987020416_);}
	.st64{fill:none;stroke:#060139;stroke-width:1.75;stroke-linecap:round;stroke-miterlimit:10;}
	.st65{fill:url(#SVGID_00000005953850194864354730000004402896538556336317_);}
	.st66{fill:#F4F4F4;}
	.st67{fill:none;stroke:#A9B4C6;stroke-width:0.5;stroke-miterlimit:10;}
	.st68{fill:#212121;}
	.st69{fill:#2E1F24;}
	.st70{fill:url(#SVGID_00000142894679678261986540000005419828160676702370_);}
	.st71{fill:url(#SVGID_00000016753702576347401980000002096289286156213413_);}
	.st72{fill:none;stroke:#C5C6C8;stroke-width:0.5;stroke-miterlimit:10;}
	.st73{fill:none;stroke:#012169;stroke-miterlimit:10;}
	.st74{fill:#F2FCFC;}
	.st75{opacity:0;fill:#FFFFFF;}
	.st76{fill:none;stroke:#333333;stroke-width:1.0354;stroke-linecap:round;stroke-linejoin:round;}
	.st77{fill:none;stroke:#FFFFFF;stroke-width:2;stroke-linecap:round;stroke-miterlimit:10;}
	.st78{fill:none;stroke:#333333;stroke-width:1.5;stroke-miterlimit:10;}
	.st79{fill:none;stroke:#FFFFFF;stroke-width:1.5;stroke-linecap:round;stroke-miterlimit:10;}
	.st80{fill:#FFFFFF;stroke:#DFDFE5;stroke-miterlimit:10;}
	.st81{fill:#EE3553;}
	.st82{fill:none;stroke:#EE3553;stroke-width:0.8203;stroke-miterlimit:10;}
	.st83{fill:none;stroke:#DFDFE5;stroke-miterlimit:10;}
	.st84{fill:#455A64;}
	.st85{fill:#E0F7FA;}
	.st86{fill:none;stroke:#060139;stroke-width:1.5;stroke-linecap:round;stroke-linejoin:round;}
	.st87{fill:#37B34A;stroke:#37B34A;stroke-width:0.3649;stroke-miterlimit:10;}
	.st88{fill:none;stroke:#060139;stroke-width:2.3665;stroke-miterlimit:10;}
	.st89{fill:none;stroke:#060139;stroke-width:2.3665;stroke-linecap:round;stroke-miterlimit:10;}
	.st90{fill:#F6F7F7;}
	.st91{fill:#FFA77B;}
	.st92{fill:#FFCFB8;}
	.st93{fill:#CFF1FB;}
	.st94{fill:#F98770;}
	.st95{fill:#746887;}
	.st96{fill:none;stroke:#060139;stroke-width:1.5777;stroke-miterlimit:10;}
	.st97{fill:#060139;stroke:#FFFFFF;stroke-width:0.75;stroke-miterlimit:10;}
	.st98{fill:#3E52D4;}
	.st99{fill:url(#SVGID_00000046329306779266702460000018082376185070236607_);}
	.st100{fill:none;stroke:#0659ED;stroke-width:2;stroke-miterlimit:10;}
	.st101{fill:url(#SVGID_00000093862006188682186020000009463556539195101621_);}
</style>
<g id="Layer_1">
	<g>
		<g>
			<rect x="48" y="4.8" class="st88" width="50.4" height="69.3"/>
			<rect x="5.5" y="63.1" class="st88" width="29.9" height="31.5"/>
			<path class="st89" d="M20.7,62.8c-4.2-14.9,12.1-20.2,23.7-20.6c11.1-0.4,26.8-0.1,28.7-14.3"/>
		</g>
		<g>
			<g>
				<path class="st90" d="M38.8,62.1H28.7c-2.8,6.3-8.2,9.5-8.2,9.5s-5.4-3.2-8.2-9.5H2.2c-0.7,0-1.2,0.5-1.2,1.2v31.3
					c0,0.7,0.5,1.2,1.2,1.2h36.6c0.7,0,1.2-0.5,1.2-1.2V63.3C40,62.6,39.4,62.1,38.8,62.1z"/>
				<path class="st91" d="M38.8,62.1H28.7c-2.8,6.3-8.2,9.5-8.2,9.5s-5.4-3.2-8.2-9.5H2.2c-0.7,0-1.2,0.5-1.2,1.2v13.2h39V63.3
					C40,62.6,39.4,62.1,38.8,62.1z"/>
				<path class="st92" d="M19.5,82.5H6.2c-0.6,0-1.2,0.5-1.2,1.2v0.8c0,0.6,0.5,1.2,1.2,1.2h13.3c0.6,0,1.2-0.5,1.2-1.2v-0.8
					C20.7,83,20.2,82.5,19.5,82.5z"/>
				<path class="st92" d="M19.5,88.7H6.2c-0.6,0-1.2,0.5-1.2,1.2v0.8c0,0.6,0.5,1.2,1.2,1.2h13.3c0.6,0,1.2-0.5,1.2-1.2v-0.8
					C20.7,89.2,20.2,88.7,19.5,88.7z"/>
				<path class="st93" d="M20.5,44.4c-5.5,0-9.9,4.1-9.9,9.9c0,11.4,9.9,17.2,9.9,17.2s9.9-5.8,9.9-17.2
					C30.4,48.5,25.9,44.4,20.5,44.4z"/>
				<ellipse class="st90" cx="20.5" cy="55.2" rx="4.7" ry="4.7"/>
			</g>
			<g>
				<path class="st94" d="M38.8,61.5H28.7c-0.2,0-0.5,0.1-0.6,0.4c-2.3,5.2-6.5,8.2-7.7,9c-1.2-0.8-5.4-3.8-7.7-9
					c-0.1-0.2-0.3-0.4-0.6-0.4H2.2c-1,0-1.8,0.8-1.8,1.8v13.2c0,0.3,0.3,0.6,0.6,0.6h3.7c0.3,0,0.6-0.3,0.6-0.6S5,75.9,4.7,75.9H1.6
					V63.3c0-0.3,0.3-0.6,0.6-0.6h9.7c2.9,6.1,8.1,9.3,8.3,9.4c0.2,0.1,0.4,0.1,0.6,0c0.2-0.1,5.4-3.2,8.3-9.4h9.7
					c0.3,0,0.6,0.3,0.6,0.6v12.6H7.8c-0.3,0-0.6,0.3-0.6,0.6s0.3,0.6,0.6,0.6H40c0.3,0,0.6-0.3,0.6-0.6V63.3
					C40.6,62.3,39.8,61.5,38.8,61.5z"/>
				<path class="st49" d="M38.8,61.5H28.7c-0.2,0-0.5,0.1-0.6,0.4c-2.3,5.2-6.5,8.2-7.7,9c-1.2-0.8-5.4-3.8-7.7-9
					c-0.1-0.2-0.3-0.4-0.6-0.4H2.2c-1,0-1.8,0.8-1.8,1.8v31.3c0,1,0.8,1.8,1.8,1.8h36.6c1,0,1.8-0.8,1.8-1.8v-3.4
					c0-0.3-0.3-0.6-0.6-0.6c-0.3,0-0.6,0.3-0.6,0.6v3.4c0,0.3-0.3,0.6-0.6,0.6H2.2c-0.3,0-0.6-0.3-0.6-0.6V63.3
					c0-0.3,0.3-0.6,0.6-0.6h9.7c2.9,6.1,8.1,9.3,8.3,9.4c0.2,0.1,0.4,0.1,0.6,0c0.2-0.1,5.4-3.2,8.3-9.4h9.7c0.3,0,0.6,0.3,0.6,0.6
					v24.6c0,0.3,0.3,0.6,0.6,0.6c0.3,0,0.6-0.3,0.6-0.6V63.3C40.6,62.3,39.8,61.5,38.8,61.5z"/>
				<path class="st95" d="M19.5,81.8H6.2c-1,0-1.8,0.8-1.8,1.8v0.8c0,1,0.8,1.8,1.8,1.8h13.3c1,0,1.8-0.8,1.8-1.8v-0.8
					C21.3,82.6,20.5,81.8,19.5,81.8z M20.1,84.4c0,0.3-0.2,0.6-0.6,0.6H6.2c-0.3,0-0.6-0.2-0.6-0.6v-0.8c0-0.3,0.2-0.6,0.6-0.6h13.3
					c0.3,0,0.6,0.2,0.6,0.6V84.4z"/>
				<path class="st95" d="M19.5,88.1H6.2c-1,0-1.8,0.8-1.8,1.8v0.8c0,1,0.8,1.8,1.8,1.8h13.3c1,0,1.8-0.8,1.8-1.8v-0.8
					C21.3,88.9,20.5,88.1,19.5,88.1z M20.1,90.7c0,0.3-0.2,0.6-0.6,0.6H6.2c-0.3,0-0.6-0.2-0.6-0.6v-0.8c0-0.3,0.2-0.6,0.6-0.6h13.3
					c0.3,0,0.6,0.2,0.6,0.6V90.7z"/>
				<path class="st95" d="M20.5,43.8c-6,0-10.5,4.5-10.5,10.5C10,66,20.1,72,20.2,72.1c0.1,0.1,0.2,0.1,0.3,0.1s0.2,0,0.3-0.1
					C20.9,72,31,66,31,54.3C31,48.3,26.5,43.8,20.5,43.8z M20.5,70.8c-1.6-1.1-9.3-6.7-9.3-16.5c0-5.3,4-9.3,9.3-9.3
					c5.3,0,9.2,4,9.2,9.3C29.7,64.1,22.1,69.7,20.5,70.8z"/>
				<path class="st94" d="M22.2,50.1c-0.3-0.1-0.7,0.1-0.8,0.4c-0.1,0.3,0.1,0.7,0.4,0.8c1.7,0.6,2.8,2.1,2.8,3.9
					c0,2.3-1.8,4.1-4.1,4.1s-4.1-1.8-4.1-4.1c0-1.8,1.1-3.3,2.8-3.9c0.3-0.1,0.5-0.5,0.4-0.8c-0.1-0.3-0.5-0.5-0.8-0.4
					c-2.1,0.7-3.6,2.8-3.6,5c0,2.9,2.4,5.3,5.3,5.3s5.3-2.4,5.3-5.3C25.8,52.9,24.4,50.9,22.2,50.1z"/>
			</g>
		</g>
		<path class="st96" d="M73.4,8.3c-4,0-7.1,3.1-7.1,7.1c0,7.9,6.8,12,6.9,12c0.1,0,0.1,0.1,0.2,0.1c0.1,0,0.1,0,0.2-0.1
			c0.1,0,6.9-4.1,6.9-12C80.4,11.4,77.4,8.3,73.4,8.3z M73.3,26.6c-1.1-0.7-6.3-4.5-6.3-11.1c0-3.6,2.7-6.3,6.3-6.3
			c3.6,0,6.3,2.7,6.3,6.3C79.6,22.1,74.5,25.8,73.3,26.6z"/>
		<path class="st81" d="M74.5,12.6c-0.2-0.1-0.5,0-0.5,0.3c-0.1,0.2,0,0.5,0.3,0.5c1.1,0.4,1.9,1.4,1.9,2.6c0,1.5-1.2,2.8-2.8,2.8
			s-2.8-1.2-2.8-2.8c0-1.2,0.8-2.2,1.9-2.6c0.2-0.1,0.3-0.3,0.3-0.5c-0.1-0.2-0.3-0.3-0.5-0.3c-1.5,0.5-2.4,1.9-2.4,3.4
			c0,2,1.6,3.6,3.6,3.6c2,0,3.6-1.6,3.6-3.6C77,14.5,76,13.1,74.5,12.6z"/>
	</g>
	<g>
		<g>
			<rect x="48.6" y="4.2" class="st88" width="50.4" height="69.3"/>
			<rect x="6.1" y="62.5" class="st88" width="29.9" height="31.5"/>
			<path class="st89" d="M21.3,62.2C17.1,47.3,33.4,42,45,41.6c11.1-0.4,26.8-0.1,28.7-14.3"/>
		</g>
		<g>
			<g>
				<path class="st90" d="M39.4,61.5H29.3c-2.8,6.3-8.2,9.5-8.2,9.5s-5.4-3.2-8.2-9.5H2.8c-0.7,0-1.2,0.5-1.2,1.2v31.3
					c0,0.7,0.5,1.2,1.2,1.2h36.6c0.7,0,1.2-0.5,1.2-1.2V62.7C40.6,62,40,61.5,39.4,61.5z"/>
				<path class="st91" d="M39.4,61.5H29.3c-2.8,6.3-8.2,9.5-8.2,9.5s-5.4-3.2-8.2-9.5H2.8c-0.7,0-1.2,0.5-1.2,1.2v13.2h39V62.7
					C40.6,62,40,61.5,39.4,61.5z"/>
				<path class="st92" d="M20.1,81.9H6.8c-0.6,0-1.2,0.5-1.2,1.2v0.8c0,0.6,0.5,1.2,1.2,1.2h13.3c0.6,0,1.2-0.5,1.2-1.2V83
					C21.3,82.4,20.7,81.9,20.1,81.9z"/>
				<path class="st92" d="M20.1,88.1H6.8c-0.6,0-1.2,0.5-1.2,1.2v0.8c0,0.6,0.5,1.2,1.2,1.2h13.3c0.6,0,1.2-0.5,1.2-1.2v-0.8
					C21.3,88.6,20.7,88.1,20.1,88.1z"/>
				<path class="st93" d="M21.1,43.8c-5.5,0-9.9,4.1-9.9,9.9c0,11.4,9.9,17.2,9.9,17.2s9.9-5.8,9.9-17.2
					C30.9,47.9,26.5,43.8,21.1,43.8z"/>
				<ellipse class="st90" cx="21.1" cy="54.6" rx="4.7" ry="4.7"/>
			</g>
			<g>
				<path class="st94" d="M39.4,60.9H29.3c-0.2,0-0.5,0.1-0.6,0.4c-2.3,5.2-6.5,8.2-7.7,9c-1.2-0.8-5.4-3.8-7.7-9
					c-0.1-0.2-0.3-0.4-0.6-0.4H2.8c-1,0-1.8,0.8-1.8,1.8v13.2c0,0.3,0.3,0.6,0.6,0.6h3.7c0.3,0,0.6-0.3,0.6-0.6s-0.3-0.6-0.6-0.6
					H2.2V62.7c0-0.3,0.3-0.6,0.6-0.6h9.7c2.9,6.1,8.1,9.3,8.3,9.4c0.2,0.1,0.4,0.1,0.6,0c0.2-0.1,5.4-3.2,8.3-9.4h9.7
					c0.3,0,0.6,0.3,0.6,0.6v12.6H8.4c-0.3,0-0.6,0.3-0.6,0.6s0.3,0.6,0.6,0.6h32.1c0.3,0,0.6-0.3,0.6-0.6V62.7
					C41.2,61.7,40.4,60.9,39.4,60.9z"/>
				<path class="st49" d="M39.4,60.9H29.3c-0.2,0-0.5,0.1-0.6,0.4c-2.3,5.2-6.5,8.2-7.7,9c-1.2-0.8-5.4-3.8-7.7-9
					c-0.1-0.2-0.3-0.4-0.6-0.4H2.8c-1,0-1.8,0.8-1.8,1.8v31.3c0,1,0.8,1.8,1.8,1.8h36.6c1,0,1.8-0.8,1.8-1.8v-3.4
					c0-0.3-0.3-0.6-0.6-0.6c-0.3,0-0.6,0.3-0.6,0.6v3.4c0,0.3-0.3,0.6-0.6,0.6H2.8c-0.3,0-0.6-0.3-0.6-0.6V62.7
					c0-0.3,0.3-0.6,0.6-0.6h9.7c2.9,6.1,8.1,9.3,8.3,9.4c0.2,0.1,0.4,0.1,0.6,0c0.2-0.1,5.4-3.2,8.3-9.4h9.7c0.3,0,0.6,0.3,0.6,0.6
					v24.6c0,0.3,0.3,0.6,0.6,0.6c0.3,0,0.6-0.3,0.6-0.6V62.7C41.2,61.7,40.4,60.9,39.4,60.9z"/>
				<path class="st95" d="M20.1,81.2H6.8c-1,0-1.8,0.8-1.8,1.8v0.8c0,1,0.8,1.8,1.8,1.8h13.3c1,0,1.8-0.8,1.8-1.8V83
					C21.9,82.1,21.1,81.2,20.1,81.2z M20.7,83.8c0,0.3-0.2,0.6-0.6,0.6H6.8c-0.3,0-0.6-0.2-0.6-0.6V83c0-0.3,0.2-0.6,0.6-0.6h13.3
					c0.3,0,0.6,0.2,0.6,0.6V83.8z"/>
				<path class="st95" d="M20.1,87.5H6.8c-1,0-1.8,0.8-1.8,1.8v0.8c0,1,0.8,1.8,1.8,1.8h13.3c1,0,1.8-0.8,1.8-1.8v-0.8
					C21.9,88.3,21.1,87.5,20.1,87.5z M20.7,90.1c0,0.3-0.2,0.6-0.6,0.6H6.8c-0.3,0-0.6-0.2-0.6-0.6v-0.8c0-0.3,0.2-0.6,0.6-0.6h13.3
					c0.3,0,0.6,0.2,0.6,0.6V90.1z"/>
				<path class="st95" d="M21.1,43.2c-6,0-10.5,4.5-10.5,10.5c0,11.6,10.1,17.7,10.2,17.7c0.1,0.1,0.2,0.1,0.3,0.1s0.2,0,0.3-0.1
					c0.1-0.1,10.2-6.1,10.2-17.7C31.6,47.7,27.1,43.2,21.1,43.2z M21.1,70.2c-1.6-1.1-9.3-6.7-9.3-16.5c0-5.3,4-9.3,9.3-9.3
					c5.3,0,9.2,4,9.2,9.3C30.3,63.5,22.7,69.1,21.1,70.2z"/>
				<path class="st94" d="M22.8,49.5c-0.3-0.1-0.7,0.1-0.8,0.4c-0.1,0.3,0.1,0.7,0.4,0.8c1.7,0.6,2.8,2.1,2.8,3.9
					c0,2.3-1.8,4.1-4.1,4.1S17,56.9,17,54.6c0-1.8,1.1-3.3,2.8-3.9c0.3-0.1,0.5-0.5,0.4-0.8c-0.1-0.3-0.5-0.5-0.8-0.4
					c-2.1,0.7-3.6,2.8-3.6,5c0,2.9,2.4,5.3,5.3,5.3s5.3-2.4,5.3-5.3C26.4,52.3,25,50.3,22.8,49.5z"/>
			</g>
		</g>
		<path class="st96" d="M73.9,7.8c-4,0-7.1,3.1-7.1,7.1c0,7.9,6.8,12,6.9,12c0.1,0,0.1,0.1,0.2,0.1c0.1,0,0.1,0,0.2-0.1
			c0.1,0,6.9-4.1,6.9-12C81,10.8,78,7.8,73.9,7.8z M73.9,26c-1.1-0.7-6.3-4.5-6.3-11.1c0-3.6,2.7-6.3,6.3-6.3c3.6,0,6.3,2.7,6.3,6.3
			C80.2,21.5,75.1,25.3,73.9,26z"/>
		<path class="st81" d="M75.1,12c-0.2-0.1-0.5,0-0.5,0.3s0,0.5,0.3,0.5c1.1,0.4,1.9,1.4,1.9,2.6c0,1.5-1.2,2.8-2.8,2.8
			s-2.8-1.2-2.8-2.8c0-1.2,0.8-2.2,1.9-2.6c0.2-0.1,0.3-0.3,0.3-0.5C73.2,12.1,73,12,72.8,12c-1.5,0.5-2.4,1.9-2.4,3.4
			c0,2,1.6,3.6,3.6,3.6s3.6-1.6,3.6-3.6C77.5,13.9,76.6,12.5,75.1,12z"/>
	</g>
</g>
<g id="Layer_2">
</g>
</svg>
