<?xml version="1.0" encoding="utf-8"?>
<!-- Generator: Adobe Illustrator 27.0.0, SVG Export Plug-In . SVG Version: 6.00 Build 0)  -->
<svg version="1.1" xmlns="http://www.w3.org/2000/svg" xmlns:xlink="http://www.w3.org/1999/xlink" x="0px" y="0px"
	 viewBox="0 0 100 100" style="enable-background:new 0 0 100 100;" xml:space="preserve">
<style type="text/css">
	.st0{fill:none;}
	.st1{opacity:0.9;fill:#1A0B0B;}
	.st2{fill:#F5F8F9;}
	.st3{fill:#FFFFFF;}
	.st4{fill:none;stroke:#343C45;stroke-width:0.2761;stroke-miterlimit:10;}
	.st5{fill:#012169;}
	.st6{opacity:0.4;fill:#333333;}
	.st7{fill:none;stroke:#C5C6C8;stroke-width:0.5039;stroke-miterlimit:10;}
	.st8{fill:#FAE8E8;}
	.st9{fill:none;stroke:#EA6061;stroke-width:0.9098;stroke-linecap:round;stroke-linejoin:round;stroke-miterlimit:10;}
	.st10{fill:#EA6061;stroke:#EA6061;stroke-width:0.25;stroke-miterlimit:10;}
	.st11{fill:#E3F6EB;}
	.st12{fill:none;stroke:#51AE3B;stroke-width:0.9098;stroke-linecap:round;stroke-linejoin:round;stroke-miterlimit:10;}
	.st13{fill:#20201F;}
	.st14{fill:#EFF2F8;}
	.st15{fill:#2A367E;}
	.st16{fill:#EA6061;}
	.st17{fill:none;stroke:#343C45;stroke-width:0.2426;stroke-miterlimit:10;}
	.st18{fill:none;stroke:#000000;stroke-width:0.5;stroke-miterlimit:10;}
	.st19{fill:#1A0B0B;}
	.st20{fill:none;stroke:#343C45;stroke-width:0.75;stroke-miterlimit:10;}
	.st21{fill:none;stroke:#333333;stroke-linecap:round;stroke-miterlimit:10;}
	.st22{opacity:0.5;}
	.st23{fill:none;stroke:#343C45;stroke-width:0.25;stroke-miterlimit:10;}
	.st24{opacity:0.95;}
	.st25{fill:url(#SVGID_1_);}
	.st26{fill:url(#SVGID_00000116943148584161652450000016628335987876999046_);}
	.st27{fill:#032D77;}
	.st28{opacity:0;fill:#032D77;}
	.st29{opacity:0.6;fill:#FFFFFF;}
	.st30{opacity:0.6;}
	.st31{fill:#EEF1F7;}
	.st32{fill:#333333;}
	.st33{fill:url(#SVGID_00000044856532709665316050000016208919247157464726_);}
	.st34{fill:url(#SVGID_00000127744259909360289360000002116744596530632379_);}
	.st35{fill:url(#SVGID_00000020371784987333961080000010741561233147811735_);}
	.st36{fill:#FAAF40;}
	.st37{fill:url(#SVGID_00000170968521112662098420000017274892781995118465_);}
	.st38{opacity:0.5;fill:url(#SVGID_00000006669291684809592110000018015256855524552631_);}
	.st39{fill:#E8E8E8;}
	.st40{fill:none;stroke:#333333;stroke-width:0.7865;stroke-linecap:round;stroke-miterlimit:10;}
	.st41{fill:url(#SVGID_00000037665679426733285930000006303506795276688032_);}
	.st42{fill:#0659ED;}
	.st43{fill:#02399B;}
	.st44{fill:url(#SVGID_00000180350948496025685400000004574577247617886355_);}
	.st45{fill:#7F00FF;}
	.st46{fill:#6900E2;}
	.st47{fill:#5200C6;}
	.st48{fill:#36B24A;}
	.st49{fill:#060139;}
	.st50{fill:none;stroke:#060139;stroke-width:1.8754;stroke-miterlimit:10;}
	.st51{display:none;fill:#37B34A;}
	.st52{display:none;fill-rule:evenodd;clip-rule:evenodd;fill:#37B34A;}
	.st53{fill-rule:evenodd;clip-rule:evenodd;fill:#37B34A;}
	.st54{fill:#37B34A;}
	.st55{fill:#08F3F9;}
	.st56{display:none;}
	.st57{display:inline;}
	.st58{fill:#BCBABB;}
	.st59{display:inline;fill:#2E1F24;}
	.st60{fill:url(#SVGID_00000160172349361503942450000012094342960643410838_);}
	.st61{fill:#FFFFFF;stroke:#919396;stroke-width:0.2269;stroke-miterlimit:10;}
	.st62{fill:#2A2A2A;}
	.st63{fill:url(#SVGID_00000046320544857354126940000007758704842997799867_);}
	.st64{fill:none;stroke:#060139;stroke-width:1.75;stroke-linecap:round;stroke-miterlimit:10;}
	.st65{fill:url(#SVGID_00000167368122021433429150000001706092788526687649_);}
	.st66{fill:#F4F4F4;}
	.st67{fill:none;stroke:#A9B4C6;stroke-width:0.5;stroke-miterlimit:10;}
	.st68{fill:#212121;}
	.st69{fill:#2E1F24;}
	.st70{fill:url(#SVGID_00000145758331040414405790000016697247665455714482_);}
	.st71{fill:url(#SVGID_00000072983288322887227850000010444960835486041228_);}
	.st72{fill:none;stroke:#C5C6C8;stroke-width:0.5;stroke-miterlimit:10;}
	.st73{fill:none;stroke:#012169;stroke-miterlimit:10;}
	.st74{fill:#F2FCFC;}
	.st75{opacity:0;fill:#FFFFFF;}
	.st76{fill:none;stroke:#333333;stroke-width:1.0354;stroke-linecap:round;stroke-linejoin:round;}
	.st77{fill:none;stroke:#FFFFFF;stroke-width:2;stroke-linecap:round;stroke-miterlimit:10;}
	.st78{fill:none;stroke:#333333;stroke-width:1.5;stroke-miterlimit:10;}
	.st79{fill:none;stroke:#FFFFFF;stroke-width:1.5;stroke-linecap:round;stroke-miterlimit:10;}
	.st80{fill:#FFFFFF;stroke:#DFDFE5;stroke-miterlimit:10;}
	.st81{fill:#EE3553;}
	.st82{fill:none;stroke:#EE3553;stroke-width:0.8203;stroke-miterlimit:10;}
	.st83{fill:none;stroke:#DFDFE5;stroke-miterlimit:10;}
	.st84{fill:#455A64;}
	.st85{fill:#E0F7FA;}
	.st86{fill:none;stroke:#060139;stroke-width:1.5;stroke-linecap:round;stroke-linejoin:round;}
	.st87{fill:#37B34A;stroke:#37B34A;stroke-width:0.3649;stroke-miterlimit:10;}
	.st88{fill:none;stroke:#060139;stroke-width:2.3665;stroke-miterlimit:10;}
	.st89{fill:none;stroke:#060139;stroke-width:2.3665;stroke-linecap:round;stroke-miterlimit:10;}
	.st90{fill:#F6F7F7;}
	.st91{fill:#FFA77B;}
	.st92{fill:#FFCFB8;}
	.st93{fill:#CFF1FB;}
	.st94{fill:#F98770;}
	.st95{fill:#746887;}
	.st96{fill:none;stroke:#060139;stroke-width:1.5777;stroke-miterlimit:10;}
	.st97{fill:#060139;stroke:#FFFFFF;stroke-width:0.75;stroke-miterlimit:10;}
	.st98{fill:#3E52D4;}
	.st99{fill:url(#SVGID_00000137112541205145555230000015686947786113157777_);}
	.st100{fill:none;stroke:#0659ED;stroke-width:2;stroke-miterlimit:10;}
	.st101{fill:url(#SVGID_00000139293613246396590760000000304372914501340834_);}
</style>
<g id="Layer_1">
	<g>
		<path class="st54" d="M27.7,43.4l10.4-10c0.6-0.6,0.5-1.4-0.2-1.9c-0.7-0.5-1.8-0.4-2.3,0.2l-8.9,8.6l-1.9-2.5
			c-0.5-0.6-1.5-0.8-2.3-0.4c-0.8,0.4-1,1.2-0.5,1.8l3.2,4.1C25.6,44,27,44.1,27.7,43.4z"/>
		<path class="st36" d="M21.9,56.8l3.2,4.1c0.6,0.8,2,0.9,2.7,0.2l10.4-10c0.6-0.6,0.5-1.4-0.2-1.9c-0.7-0.5-1.8-0.4-2.3,0.2
			l-8.9,8.6l-1.9-2.5c-0.5-0.6-1.5-0.8-2.3-0.4C21.6,55.3,21.4,56.2,21.9,56.8z"/>
		<path class="st81" d="M21.9,74.6l3.2,4.1c0.6,0.8,2,0.9,2.7,0.2l10.4-10c0.6-0.6,0.5-1.4-0.2-1.9c-0.7-0.5-1.8-0.4-2.3,0.2
			l-8.9,8.6l-1.9-2.5c-0.5-0.6-1.5-0.8-2.3-0.4C21.6,73.1,21.4,74,21.9,74.6z"/>
		<path class="st49" d="M84.4,79.9c-0.7,0-1.3,0.6-1.3,1.3V91c0,1.1-0.9,2.1-2.1,2.1H19C17.9,93,17,92.1,17,91V32.3
			c0-0.7-0.6-1.3-1.3-1.3c-0.7,0-1.3,0.6-1.3,1.3V91c0,2.6,2.1,4.7,4.7,4.7h62c2.6,0,4.7-2.1,4.7-4.7v-9.7
			C85.7,80.5,85.1,79.9,84.4,79.9z"/>
		<path class="st49" d="M81,14.6h-6.6V9.1c0-2.6-2.1-4.8-4.8-4.8c-2.6,0-4.8,2.1-4.8,4.8v5.5H54.8V9.1c0-2.6-2.1-4.8-4.8-4.8
			c-2.6,0-4.8,2.1-4.8,4.8v5.5H35.1V9.1c0-2.6-2.1-4.8-4.8-4.8c-2.6,0-4.8,2.1-4.8,4.8v5.5H19c-2.6,0-4.7,2.1-4.7,4.7V26
			c0,0.7,0.6,1.3,1.3,1.3c0.7,0,1.3-0.6,1.3-1.3v-6.7c0-1.1,0.9-2.1,2.1-2.1h6.6v2.1c0,2.6,2.1,4.8,4.8,4.8s4.8-2.1,4.8-4.8v-2.1
			h10.1v2.1c0,2.6,2.1,4.8,4.8,4.8s4.8-2.1,4.8-4.8v-2.1h10.1v2.1c0,2.6,2.1,4.8,4.8,4.8c2.6,0,4.8-2.1,4.8-4.8v-2.1H81
			c1.1,0,2.1,0.9,2.1,2.1V75c0,0.7,0.6,1.3,1.3,1.3c0.7,0,1.3-0.6,1.3-1.3V19.3C85.7,16.7,83.6,14.6,81,14.6L81,14.6z M32.5,19.4
			c0,1.2-0.9,2.1-2.1,2.1c-1.2,0-2.1-0.9-2.1-2.1c0-2.9,0-9.4,0-10.3c0-1.2,0.9-2.1,2.1-2.1c1.2,0,2.1,0.9,2.1,2.1V19.4z M52.1,19.4
			c0,1.2-0.9,2.1-2.1,2.1c-1.2,0-2.1-0.9-2.1-2.1c0-2.9,0-9.4,0-10.3C47.9,7.9,48.8,7,50,7c1.2,0,2.1,0.9,2.1,2.1V19.4z M71.8,19.4
			c0,1.2-0.9,2.1-2.1,2.1c-1.2,0-2.1-0.9-2.1-2.1c0-2.9,0-9.4,0-10.3c0-1.2,0.9-2.1,2.1-2.1c1.2,0,2.1,0.9,2.1,2.1V19.4z"/>
		<path class="st49" d="M43.9,44.5h28.2c2.3,0,4.2-1.9,4.2-4.2c0-2.3-1.9-4.2-4.2-4.2H43.9c-2.3,0-4.2,1.9-4.2,4.2
			C39.7,42.6,41.6,44.5,43.9,44.5L43.9,44.5z M43.9,38.8h28.2c0.8,0,1.5,0.7,1.5,1.5c0,0.8-0.7,1.5-1.5,1.5H43.9
			c-0.8,0-1.5-0.7-1.5-1.5C42.4,39.5,43,38.8,43.9,38.8L43.9,38.8z"/>
		<path class="st49" d="M43.9,62.2h28.2c2.3,0,4.2-1.9,4.2-4.2c0-2.3-1.9-4.2-4.2-4.2H43.9c-2.3,0-4.2,1.9-4.2,4.2
			C39.7,60.3,41.6,62.2,43.9,62.2L43.9,62.2z M43.9,56.5h28.2c0.8,0,1.5,0.7,1.5,1.5s-0.7,1.5-1.5,1.5H43.9c-0.8,0-1.5-0.7-1.5-1.5
			S43,56.5,43.9,56.5L43.9,56.5z"/>
		<path class="st49" d="M43.9,79.9h28.2c2.3,0,4.2-1.9,4.2-4.2c0-2.3-1.9-4.2-4.2-4.2H43.9c-2.3,0-4.2,1.9-4.2,4.2
			C39.7,78,41.6,79.9,43.9,79.9L43.9,79.9z M43.9,74.2h28.2c0.8,0,1.5,0.7,1.5,1.5c0,0.8-0.7,1.5-1.5,1.5H43.9
			c-0.8,0-1.5-0.7-1.5-1.5C42.4,74.9,43,74.2,43.9,74.2L43.9,74.2z"/>
	</g>
	<g>
		<path class="st54" d="M27.7,43.4l10.4-10c0.6-0.6,0.5-1.4-0.2-1.9c-0.7-0.5-1.8-0.4-2.3,0.2l-8.9,8.6l-1.9-2.5
			c-0.5-0.6-1.5-0.8-2.3-0.4c-0.8,0.4-1,1.2-0.5,1.8l3.2,4.1C25.6,44,27,44.1,27.7,43.4z"/>
		<path class="st36" d="M21.9,56.8l3.2,4.1c0.6,0.8,2,0.9,2.7,0.2l10.4-10c0.6-0.6,0.5-1.4-0.2-1.9c-0.7-0.5-1.8-0.4-2.3,0.2
			l-8.9,8.6l-1.9-2.5c-0.5-0.6-1.5-0.8-2.3-0.4C21.6,55.3,21.4,56.2,21.9,56.8z"/>
		<path class="st81" d="M21.9,74.6l3.2,4.1c0.6,0.8,2,0.9,2.7,0.2l10.4-10c0.6-0.6,0.5-1.4-0.2-1.9c-0.7-0.5-1.8-0.4-2.3,0.2
			l-8.9,8.6l-1.9-2.5c-0.5-0.6-1.5-0.8-2.3-0.4C21.6,73.1,21.4,74,21.9,74.6z"/>
		<path class="st49" d="M84.4,79.9c-0.7,0-1.3,0.6-1.3,1.3V91c0,1.1-0.9,2.1-2.1,2.1H19C17.9,93,17,92.1,17,91V32.3
			c0-0.7-0.6-1.3-1.3-1.3c-0.7,0-1.3,0.6-1.3,1.3V91c0,2.6,2.1,4.7,4.7,4.7h62c2.6,0,4.7-2.1,4.7-4.7v-9.7
			C85.7,80.5,85.1,79.9,84.4,79.9z"/>
		<path class="st49" d="M81,14.6h-6.6V9.1c0-2.6-2.1-4.8-4.8-4.8c-2.6,0-4.8,2.1-4.8,4.8v5.5H54.8V9.1c0-2.6-2.1-4.8-4.8-4.8
			c-2.6,0-4.8,2.1-4.8,4.8v5.5H35.1V9.1c0-2.6-2.1-4.8-4.8-4.8c-2.6,0-4.8,2.1-4.8,4.8v5.5H19c-2.6,0-4.7,2.1-4.7,4.7V26
			c0,0.7,0.6,1.3,1.3,1.3c0.7,0,1.3-0.6,1.3-1.3v-6.7c0-1.1,0.9-2.1,2.1-2.1h6.6v2.1c0,2.6,2.1,4.8,4.8,4.8s4.8-2.1,4.8-4.8v-2.1
			h10.1v2.1c0,2.6,2.1,4.8,4.8,4.8s4.8-2.1,4.8-4.8v-2.1h10.1v2.1c0,2.6,2.1,4.8,4.8,4.8c2.6,0,4.8-2.1,4.8-4.8v-2.1H81
			c1.1,0,2.1,0.9,2.1,2.1V75c0,0.7,0.6,1.3,1.3,1.3c0.7,0,1.3-0.6,1.3-1.3V19.3C85.7,16.7,83.6,14.6,81,14.6L81,14.6z M32.5,19.4
			c0,1.2-0.9,2.1-2.1,2.1c-1.2,0-2.1-0.9-2.1-2.1c0-2.9,0-9.4,0-10.3c0-1.2,0.9-2.1,2.1-2.1c1.2,0,2.1,0.9,2.1,2.1V19.4z M52.1,19.4
			c0,1.2-0.9,2.1-2.1,2.1c-1.2,0-2.1-0.9-2.1-2.1c0-2.9,0-9.4,0-10.3C47.9,7.9,48.8,7,50,7c1.2,0,2.1,0.9,2.1,2.1V19.4z M71.8,19.4
			c0,1.2-0.9,2.1-2.1,2.1c-1.2,0-2.1-0.9-2.1-2.1c0-2.9,0-9.4,0-10.3c0-1.2,0.9-2.1,2.1-2.1c1.2,0,2.1,0.9,2.1,2.1V19.4z"/>
		<path class="st49" d="M43.9,44.5h28.2c2.3,0,4.2-1.9,4.2-4.2c0-2.3-1.9-4.2-4.2-4.2H43.9c-2.3,0-4.2,1.9-4.2,4.2
			C39.7,42.6,41.6,44.5,43.9,44.5L43.9,44.5z M43.9,38.8h28.2c0.8,0,1.5,0.7,1.5,1.5c0,0.8-0.7,1.5-1.5,1.5H43.9
			c-0.8,0-1.5-0.7-1.5-1.5C42.4,39.5,43,38.8,43.9,38.8L43.9,38.8z"/>
		<path class="st49" d="M43.9,62.2h28.2c2.3,0,4.2-1.9,4.2-4.2c0-2.3-1.9-4.2-4.2-4.2H43.9c-2.3,0-4.2,1.9-4.2,4.2
			C39.7,60.3,41.6,62.2,43.9,62.2L43.9,62.2z M43.9,56.5h28.2c0.8,0,1.5,0.7,1.5,1.5s-0.7,1.5-1.5,1.5H43.9c-0.8,0-1.5-0.7-1.5-1.5
			S43,56.5,43.9,56.5L43.9,56.5z"/>
		<path class="st49" d="M43.9,79.9h28.2c2.3,0,4.2-1.9,4.2-4.2c0-2.3-1.9-4.2-4.2-4.2H43.9c-2.3,0-4.2,1.9-4.2,4.2
			C39.7,78,41.6,79.9,43.9,79.9L43.9,79.9z M43.9,74.2h28.2c0.8,0,1.5,0.7,1.5,1.5c0,0.8-0.7,1.5-1.5,1.5H43.9
			c-0.8,0-1.5-0.7-1.5-1.5C42.4,74.9,43,74.2,43.9,74.2L43.9,74.2z"/>
	</g>
</g>
<g id="Layer_2">
</g>
</svg>
