<?xml version="1.0" encoding="utf-8"?>
<!-- Generator: Adobe Illustrator 27.0.0, SVG Export Plug-In . SVG Version: 6.00 Build 0)  -->
<svg version="1.1" id="Layer_1" xmlns="http://www.w3.org/2000/svg" xmlns:xlink="http://www.w3.org/1999/xlink" x="0px" y="0px"
	 viewBox="0 0 100 100" style="enable-background:new 0 0 100 100;" xml:space="preserve">
<style type="text/css">
	.st0{fill:#455A64;}
	.st1{fill:#37B34A;}
	.st2{fill:#FAAF40;}
	.st3{fill:#EE3553;}
	.st4{fill:#E0F7FA;}
</style>
<g>
	<g>
		<path class="st0" d="M78.7,18c-1.8,0-3.6,0-5.5,0c-2.1,0-3.6-1.3-3.6-3.3c0-1.9,1.4-3.4,3.5-3.4c3.8-0.1,7.6-0.1,11.5,0
			c2.1,0,3.5,1.5,3.4,3.4c0,1.8-1.4,3.2-3.5,3.2C82.5,18.1,80.6,18,78.7,18z M78.8,15.7c1.7,0,3.4,0.1,5.1,0c0.6,0,1.5-0.6,1.6-1
			c0.1-0.9-0.8-1-1.5-1c-3.5,0-6.9,0-10.4,0c-0.8,0-1.6,0.2-1.5,1.1c0,0.4,0.9,0.9,1.5,0.9C75.3,15.8,77,15.7,78.8,15.7z"/>
		<path class="st0" d="M29.6,14.7c0,1.9-1.5,3.3-3.4,3.3c-1.9,0-3.3-1.5-3.3-3.4c0-1.9,1.5-3.3,3.4-3.3
			C28.1,11.3,29.6,12.8,29.6,14.7z"/>
		<path class="st0" d="M41.3,14.7c0,1.9-1.5,3.3-3.4,3.3c-1.8,0-3.3-1.5-3.3-3.4c0-1.8,1.6-3.3,3.4-3.3
			C39.8,11.4,41.3,12.9,41.3,14.7z"/>
		<path class="st0" d="M17.9,14.7c0,1.9-1.5,3.3-3.4,3.3c-1.9,0-3.3-1.5-3.3-3.4c0-1.9,1.5-3.3,3.4-3.3C16.5,11.4,18,12.9,17.9,14.7
			z"/>
		<g>
			<path class="st0" d="M89,96.7c-26,0-52,0-78,0c-3.8-1.3-6.4-3.8-7.7-7.7c0-26,0-52,0-78C3.5,10.5,3.8,9.9,4,9.4
				c1.8-3.8,4.7-6,9-6c24.6,0,49.3,0,73.9,0c5.4,0,9.7,4.3,9.7,9.7c0,24.6,0,49.3,0,73.9c0,4.2-2.2,7.2-6,9
				C90.1,96.2,89.5,96.5,89,96.7z M94.4,25.4c-29.8,0-59.2,0-88.7,0c0,0.7-0.1,1.3-0.1,1.9c0,19.6,0,39.1,0,58.7
				c0,5.4,3.1,8.4,8.5,8.4c23.9,0,47.9,0,71.8,0c5.4,0,8.5-3.1,8.5-8.5c0-19.6,0-39.1,0-58.7C94.4,26.7,94.4,26.1,94.4,25.4z
				 M5.7,22.9c29.7,0,59.1,0,88.7,0c0-2.9,0-5.8,0-8.6c0-5.6-3-8.6-8.7-8.6c-13.2,0-26.4,0-39.5,0c-10.8,0-21.6,0-32.4,0
				c-4.3,0-7.6,2.5-8,6.4C5.4,15.6,5.7,19.2,5.7,22.9z"/>
			<path class="st1" d="M92.3,76c0.2,6.7-1.8,10.2-5.8,12.5c-4.6,2.6-9.6,3.7-14.9,2.8c-6.5-1.1-8.8-6.4-5-11.8
				c1-1.5,2.6-2.6,4.2-3.7c1.9-1.3,2.2-1.9,1.1-4c-1.3-2.4-1-4.5,0.9-6.5c3.9-4.1,10.5-4.2,14.5-0.2C90.7,68.8,92.2,73.2,92.3,76z
				 M75.1,89.4c3.9-0.4,7.5-1.2,10.8-3.3c2.2-1.4,3.8-3.3,4.1-6c0.6-5-0.8-9.5-4.3-13.2c-2.5-2.6-5.7-3-9-1.3
				c-3.1,1.6-3.6,2.9-2.1,6c1.1,2.3,0.5,4.3-1.6,5.7c-0.6,0.4-1.1,0.7-1.7,1c-2.1,1.2-3.3,3-3.8,5.3c-0.5,2.2,0.2,3.8,2.3,4.5
				C71.3,88.8,73.2,89,75.1,89.4z"/>
			<path class="st2" d="M23.8,32.2c4.3,0.8,9.1,1.4,13.6,2.7c5.9,1.7,11.5,1.1,17.2-0.4c5.4-1.4,10.8-2.7,16.3-3.6
				c2.5-0.4,5.2-0.1,7.8,0.2c2.9,0.4,5.2,1.9,7.1,4.1c2.6,3,2.9,6.9,0.9,10.5c-3.1,5.8-10.4,9.2-17.1,7.6c-7.6-1.7-15.1-1.5-22.4,1
				c-5.5,1.9-10.4,4.8-13.8,9.7c-0.8,1.1-1.4,2.4-2,3.6c-1.7,3.3-5,5.3-8.4,4.8c-4.1-0.5-6.7-2.9-7.3-7c-0.3-2.2-0.2-4.5-0.4-6.7
				c-0.3-2.5-0.7-5-1.4-7.5c-1-3.5-2.1-7-1.9-10.7c0.3-3.8,2.2-6.4,5.9-7.5C19.6,32.8,21.5,32.6,23.8,32.2z M72.2,51.5
				c4.7-0.2,8.5-1.6,11.3-5c3.7-4.6,2.4-10-3.1-12.4c-0.8-0.4-1.7-0.7-2.6-0.7c-2.9,0-5.9-0.3-8.7,0.2c-5.2,0.9-10.3,2.4-15.4,3.6
				c-4.3,1-8.7,1.9-13.1,0.9c-3-0.7-5.9-1.4-8.9-2c-3.9-0.8-7.7-1.6-11.7-0.9c-3.7,0.7-5.9,2.9-5.6,6.7c0.3,3.1,1.3,6.1,1.9,9.2
				c0.5,2.3,1,4.6,1.3,6.9c0.2,1.5,0,3,0.1,4.5c0.1,1.4,0.3,2.8,0.7,4.1c0.6,2,2,3.1,4,3.5c3.1,0.6,5.5-0.6,6.8-3.5
				c1.8-4,4.6-7.3,8.2-9.8c8.2-5.7,17.4-7.6,27.2-6.6C67.3,50.5,69.9,51.1,72.2,51.5z"/>
			<path class="st3" d="M87.3,78.9c0.1,1.9-1.2,4-3.8,5.4c-3.1,1.6-6.4,2.4-9.8,2.1c-1.8-0.2-2.8-0.9-3.1-2.3
				c-0.3-1.3,0.3-2.5,1.9-3.4c0.7-0.4,1.5-0.8,2.2-1.2c2.7-1.8,3.6-4.1,2.9-7.2C77,70,77.5,68.6,79,67.8c1.5-0.8,3.3-0.4,4.8,1.1
				C86,71.4,87.2,74.4,87.3,78.9z M72.9,83.4c0.1,0.2,0.2,0.4,0.3,0.5c3.9,0.4,7.6-0.1,10.8-2.8c0.4-0.3,0.6-0.8,0.8-1.2
				c1-2.6-0.7-8.2-3.1-9.7c-0.4-0.3-1.1-0.4-1.5-0.2c-0.3,0.1-0.4,0.9-0.3,1.4c0.1,1.3,0.4,2.7,0.3,3.9c-0.4,3.2-2.5,5.3-5.2,6.8
				C74.1,82.5,73.5,82.9,72.9,83.4z"/>
			<path class="st3" d="M21.5,57.8c-0.8-4.4-1.5-8.7-2.3-13.1c-0.2-1.1-0.5-2.1-0.6-3.2c-0.3-3,1.2-4.6,4.1-4.4
				c2.3,0.2,4.5,0.7,6.8,1.3c2.8,0.7,5.4,1.8,8.2,2.4c4.8,1,9.6,0,14.3-0.9c6.1-1.3,12.2-2.7,18.3-3.9c2.2-0.4,4.5-0.5,6.7-0.3
				c3.4,0.3,5.1,2.3,5.2,5.5c0,3.2-1.7,5.6-5,5.9c-3.2,0.3-6.6,0.3-9.8-0.1c-12.4-1.8-23.5,1-33.4,8.7c-2.3,1.8-4.3,4.1-6.3,6.3
				c-1.6,1.7-2.6,2.3-4.2,1.8c-1.7-0.6-2.5-1.8-2.4-4.2c0-0.5,0-1.1,0-1.6C21.2,57.8,21.4,57.8,21.5,57.8z M23.4,56.9
				C23.3,57,23.6,56.9,23.4,56.9c0,1.1-0.1,2.2,0,3.3c0,0.4,0.4,1,0.7,1.1c0.3,0.1,0.8-0.2,1.2-0.5c0.2-0.1,0.4-0.5,0.6-0.7
				C36.6,47.9,49.9,42.7,66,44.4c3.4,0.4,6.9,0.5,10.3,0.4c2.5-0.1,3.5-1.4,3.4-3.6c-0.1-2.1-1.1-3.1-3.6-3.1c-2.5,0-5,0.1-7.4,0.6
				c-6.8,1.3-13.6,3-20.5,4.3c-4.8,0.9-9.6,1.1-14.4-0.5c-3.3-1.2-6.7-2.1-10.1-2.8c-2.6-0.6-3,0.1-2.7,2.7c0.1,0.6,0.2,1.2,0.3,1.8
				C22.2,48.3,22.6,52.7,23.4,56.9z"/>
			<g>
				<ellipse class="st4" cx="51.6" cy="84.6" rx="8.7" ry="1.9"/>
				<path class="st0" d="M51.6,60.5c-4.6,0-8.4,3.8-8.4,8.4c0,1.3,0.3,2.5,0.8,3.7c0.8,1.6,3.1,5.4,5.5,9.5l1.2,2
					c0.2,0.3,0.5,0.5,0.9,0.5c0.4,0,0.7-0.2,0.9-0.5l1.2-2c2.4-4,4.7-7.9,5.4-9.4c0,0,0,0,0,0c0.6-1.2,0.8-2.4,0.8-3.7
					C60,64.3,56.2,60.5,51.6,60.5z M51.6,72.8c-2.3,0-4.1-1.8-4.1-4.1c0-2.3,1.8-4.1,4.1-4.1c2.3,0,4.1,1.8,4.1,4.1
					C55.7,70.9,53.9,72.8,51.6,72.8z"/>
			</g>
		</g>
	</g>
	<g>
		<path class="st0" d="M78.7,18c-1.8,0-3.6,0-5.5,0c-2.1,0-3.6-1.3-3.6-3.3c0-1.9,1.4-3.4,3.5-3.4c3.8-0.1,7.6-0.1,11.5,0
			c2.1,0,3.5,1.5,3.4,3.4c0,1.8-1.4,3.2-3.5,3.2C82.5,18.1,80.6,18,78.7,18z M78.8,15.7c1.7,0,3.4,0.1,5.1,0c0.6,0,1.5-0.6,1.6-1
			c0.1-0.9-0.8-1-1.5-1c-3.5,0-6.9,0-10.4,0c-0.8,0-1.6,0.2-1.5,1.1c0,0.4,0.9,0.9,1.5,0.9C75.3,15.8,77,15.7,78.8,15.7z"/>
		<path class="st0" d="M29.6,14.7c0,1.9-1.5,3.3-3.4,3.3c-1.9,0-3.3-1.5-3.3-3.4c0-1.9,1.5-3.3,3.4-3.3
			C28.1,11.3,29.6,12.8,29.6,14.7z"/>
		<path class="st0" d="M41.3,14.7c0,1.9-1.5,3.3-3.4,3.3c-1.8,0-3.3-1.5-3.3-3.4c0-1.8,1.6-3.3,3.4-3.3
			C39.8,11.4,41.3,12.9,41.3,14.7z"/>
		<path class="st0" d="M17.9,14.7c0,1.9-1.5,3.3-3.4,3.3c-1.9,0-3.3-1.5-3.3-3.4c0-1.9,1.5-3.3,3.4-3.3C16.5,11.4,18,12.9,17.9,14.7
			z"/>
		<g>
			<path class="st0" d="M89,96.7c-26,0-52,0-78,0c-3.8-1.3-6.4-3.8-7.7-7.7c0-26,0-52,0-78C3.5,10.5,3.8,9.9,4,9.4
				c1.8-3.8,4.7-6,9-6c24.6,0,49.3,0,73.9,0c5.4,0,9.7,4.3,9.7,9.7c0,24.6,0,49.3,0,73.9c0,4.2-2.2,7.2-6,9
				C90.1,96.2,89.5,96.5,89,96.7z M94.4,25.4c-29.8,0-59.2,0-88.7,0c0,0.7-0.1,1.3-0.1,1.9c0,19.6,0,39.1,0,58.7
				c0,5.4,3.1,8.4,8.5,8.4c23.9,0,47.9,0,71.8,0c5.4,0,8.5-3.1,8.5-8.5c0-19.6,0-39.1,0-58.7C94.4,26.7,94.4,26.1,94.4,25.4z
				 M5.7,22.9c29.7,0,59.1,0,88.7,0c0-2.9,0-5.8,0-8.6c0-5.6-3-8.6-8.7-8.6c-13.2,0-26.4,0-39.5,0c-10.8,0-21.6,0-32.4,0
				c-4.3,0-7.6,2.5-8,6.4C5.4,15.6,5.7,19.2,5.7,22.9z"/>
			<path class="st1" d="M83.2,27.6c-1.8-0.5-3.8-0.8-5.7-1c-4.7-0.4-9.3,0.4-13.9,1.3c-8.6,1.6-17.2,2.2-25.9,0.6
				c-1.1-0.2-2.3-0.4-3.4-0.5c-0.1,0-0.2,0-0.4,0c-3-0.4-6-0.6-9-1v0c-0.4,0-0.7-0.1-1.1-0.1c0,0,0,0,0,0c-0.4,0-0.8,0-1.1,0
				c0,0,0,0,0,0c0,0-0.1,0-0.1,0c-0.8,0-1.6,0.1-2.4,0.1c-7.2,0.6-11.2,4.3-12.2,11.4C7.3,43,8,47.4,9,51.7
				c1.4,6.1,2.1,12.1-0.3,18.2c-1.4,3.6-1.4,7.5-1,11.4c0.6,5.1,2.7,9.3,7.9,11c5.9,1.9,11.5,1,16.6-2.6c3.1-2.1,4.2-5.2,3.7-8.9
				c-0.1-1-0.3-1.9-0.5-2.9c-0.9-4.7-0.1-9,3.3-12.5c6-6,13.3-9.1,21.9-8.1c2.9,0.3,5.8,0.9,8.6,1.4c3.8,0.7,7.7,1.2,11.5,0
				c7.1-2.3,12.6-10.3,12.2-17.7C92.9,34.4,89.2,29.4,83.2,27.6z M72.6,56.7c-3.6-0.6-7.2-1.3-10.8-1.8c-9.2-1.2-17.2,1.7-23.8,8
				c-4.3,4-5.9,9.1-4.9,14.9c0.2,1.3,0.4,2.6,0.6,4c0.2,2.4-0.6,4.3-2.6,5.7c-4.7,3.4-9.8,4.2-15.2,2.3c-4.2-1.5-5.7-5.2-5.9-9.2
				c-0.1-3.2-0.2-6.7,0.9-9.7c2.4-6.7,1.9-13.2,0.4-19.9c-0.8-3.7-1.2-7.6-1-11.4c0.3-6.8,3.8-9.9,10.5-10.3c0.4,0,0.9,0,1.3,0
				c0,0,0.1,0,0.1,0c0.4,0,0.9,0,1.3,0c0,0,0,0,0,0c0.1,0,0.3,0,0.4,0c0,0,0,0,0.1,0c3.8,0.5,7.3,0.7,11,1.2
				c0.6,0.1,1.3,0.2,1.9,0.3c9.2,1.7,18.2,1,27.3-0.6c5.1-0.9,10.3-1.7,15.6-1C90.1,30.6,92.3,40,90,46.2
				C87.6,52.6,82.4,58.4,72.6,56.7z"/>
			<path class="st1" d="M92.3,76c0.2,6.7-1.8,10.2-5.8,12.5c-4.6,2.6-9.6,3.7-14.9,2.8c-6.5-1.1-8.8-6.4-5-11.8
				c1-1.5,2.6-2.6,4.2-3.7c1.9-1.3,2.2-1.9,1.1-4c-1.3-2.4-1-4.5,0.9-6.5c3.9-4.1,10.5-4.2,14.5-0.2C90.7,68.8,92.2,73.2,92.3,76z
				 M75.1,89.4c3.9-0.4,7.5-1.2,10.8-3.3c2.2-1.4,3.8-3.3,4.1-6c0.6-5-0.8-9.5-4.3-13.2c-2.5-2.6-5.7-3-9-1.3
				c-3.1,1.6-3.6,2.9-2.1,6c1.1,2.3,0.5,4.3-1.6,5.7c-0.6,0.4-1.1,0.7-1.7,1c-2.1,1.2-3.3,3-3.8,5.3c-0.5,2.2,0.2,3.8,2.3,4.5
				C71.3,88.8,73.2,89,75.1,89.4z"/>
			<path class="st2" d="M23.8,32.2c4.3,0.8,9.1,1.4,13.6,2.7c5.9,1.7,11.5,1.1,17.2-0.4c5.4-1.4,10.8-2.7,16.3-3.6
				c2.5-0.4,5.2-0.1,7.8,0.2c2.9,0.4,5.2,1.9,7.1,4.1c2.6,3,2.9,6.9,0.9,10.5c-3.1,5.8-10.4,9.2-17.1,7.6c-7.6-1.7-15.1-1.5-22.4,1
				c-5.5,1.9-10.4,4.8-13.8,9.7c-0.8,1.1-1.4,2.4-2,3.6c-1.7,3.3-5,5.3-8.4,4.8c-4.1-0.5-6.7-2.9-7.3-7c-0.3-2.2-0.2-4.5-0.4-6.7
				c-0.3-2.5-0.7-5-1.4-7.5c-1-3.5-2.1-7-1.9-10.7c0.3-3.8,2.2-6.4,5.9-7.5C19.6,32.8,21.5,32.6,23.8,32.2z M72.2,51.5
				c4.7-0.2,8.5-1.6,11.3-5c3.7-4.6,2.4-10-3.1-12.4c-0.8-0.4-1.7-0.7-2.6-0.7c-2.9,0-5.9-0.3-8.7,0.2c-5.2,0.9-10.3,2.4-15.4,3.6
				c-4.3,1-8.7,1.9-13.1,0.9c-3-0.7-5.9-1.4-8.9-2c-3.9-0.8-7.7-1.6-11.7-0.9c-3.7,0.7-5.9,2.9-5.6,6.7c0.3,3.1,1.3,6.1,1.9,9.2
				c0.5,2.3,1,4.6,1.3,6.9c0.2,1.5,0,3,0.1,4.5c0.1,1.4,0.3,2.8,0.7,4.1c0.6,2,2,3.1,4,3.5c3.1,0.6,5.5-0.6,6.8-3.5
				c1.8-4,4.6-7.3,8.2-9.8c8.2-5.7,17.4-7.6,27.2-6.6C67.3,50.5,69.9,51.1,72.2,51.5z"/>
			<path class="st3" d="M87.3,78.9c0.1,1.9-1.2,4-3.8,5.4c-3.1,1.6-6.4,2.4-9.8,2.1c-1.8-0.2-2.8-0.9-3.1-2.3
				c-0.3-1.3,0.3-2.5,1.9-3.4c0.7-0.4,1.5-0.8,2.2-1.2c2.7-1.8,3.6-4.1,2.9-7.2C77,70,77.5,68.6,79,67.8c1.5-0.8,3.3-0.4,4.8,1.1
				C86,71.4,87.2,74.4,87.3,78.9z M72.9,83.4c0.1,0.2,0.2,0.4,0.3,0.5c3.9,0.4,7.6-0.1,10.8-2.8c0.4-0.3,0.6-0.8,0.8-1.2
				c1-2.6-0.7-8.2-3.1-9.7c-0.4-0.3-1.1-0.4-1.5-0.2c-0.3,0.1-0.4,0.9-0.3,1.4c0.1,1.3,0.4,2.7,0.3,3.9c-0.4,3.2-2.5,5.3-5.2,6.8
				C74.1,82.5,73.5,82.9,72.9,83.4z"/>
			<path class="st3" d="M77,35.7c-2.2-0.2-4.5-0.1-6.7,0.3c-6.1,1.2-12.2,2.7-18.3,3.9c-4.7,1-9.5,1.9-14.3,0.9
				c-2.8-0.6-5.4-1.7-8.2-2.4c-2.2-0.6-4.5-1.1-6.8-1.3c-3-0.3-4.4,1.4-4.1,4.4c0.1,1.1,0.4,2.1,0.6,3.2c0.7,4.2,1.1,8.4,1.8,12.5
				c0,0.5,0.1,1.1,0.1,1.6c-0.1,2.8,0.6,4.2,2.4,4.8c1.5,0.5,2.6-0.1,4.2-1.8c2-2.2,4-4.5,6.3-6.3c9.8-7.7,21-10.5,33.4-8.7
				c3.2,0.5,6.5,0.4,9.8,0.1c3.3-0.3,5-2.6,5-5.9C82.1,38.1,80.4,36,77,35.7z M76.4,44.8c-3.4,0.1-6.9,0-10.3-0.4
				C49.9,42.7,36.6,47.9,26,60.2c-0.2,0.2-0.3,0.6-0.6,0.7c-0.4,0.2-0.9,0.6-1.2,0.5c-0.3-0.1-0.7-0.7-0.7-1.1c-0.1-1,0-2,0-2.9
				c0-0.2,0-0.4-0.1-0.7c-0.7-4.2-1.2-8.4-1.9-12.6c-0.1-0.6-0.2-1.2-0.3-1.8c-0.4-2.6,0.1-3.2,2.7-2.6c3.4,0.7,6.8,1.7,10.1,2.8
				c4.8,1.7,9.6,1.4,14.4,0.5c6.8-1.3,13.6-3,20.5-4.3c2.4-0.5,4.9-0.6,7.4-0.6c2.5,0,3.6,1.1,3.6,3.1
				C79.9,43.3,78.8,44.7,76.4,44.8z"/>
			<g>
				<ellipse class="st4" cx="51.6" cy="84.6" rx="8.7" ry="1.9"/>
				<path class="st0" d="M51.6,60.5c-4.6,0-8.4,3.8-8.4,8.4c0,1.3,0.3,2.5,0.8,3.7c0.8,1.6,3.1,5.4,5.5,9.5l1.2,2
					c0.2,0.3,0.5,0.5,0.9,0.5c0.4,0,0.7-0.2,0.9-0.5l1.2-2c2.4-4,4.7-7.9,5.4-9.4c0,0,0,0,0,0c0.6-1.2,0.8-2.4,0.8-3.7
					C60,64.3,56.2,60.5,51.6,60.5z M51.6,72.8c-2.3,0-4.1-1.8-4.1-4.1c0-2.3,1.8-4.1,4.1-4.1c2.3,0,4.1,1.8,4.1,4.1
					C55.7,70.9,53.9,72.8,51.6,72.8z"/>
			</g>
		</g>
	</g>
</g>
</svg>
